<svg xmlns="http://www.w3.org/2000/svg" width="260" height="66" viewBox="0 0 260 66">
  <g id="dropdown_btn" data-name="dropdown btn" transform="translate(-354 -1420)">
    <path id="BTN" d="M16,0H244a16,16,0,0,1,16,16V50a16,16,0,0,1-16,16H16A16,16,0,0,1,0,50V16A16,16,0,0,1,16,0Z" transform="translate(354 1420)" fill="#bee3ff" opacity="0.5"/>
    <text id="Model" transform="translate(383 1458)" fill="#217efd" font-size="18" font-family="ProximaNova-Semibold, Proxima Nova" font-weight="600"><tspan x="0" y="0">Model</tspan></text>
    <path id="arrow_Kopie" data-name="arrow Kopie" d="M582.173,1454.438l-5.229-5.192a.993.993,0,0,0-1.4,0,.976.976,0,0,0,0,1.387l5.928,5.885a.993.993,0,0,0,1.4,0l5.928-5.885a.976.976,0,0,0,0-1.387.993.993,0,0,0-1.4,0Z" fill="#217efd"/>
  </g>
</svg>
