<svg xmlns="http://www.w3.org/2000/svg" width="24" height="24" viewBox="0 0 24 24">
  <path id="ic_memory_24px" d="M19,11H11v8h8Zm-2.667,5.333H13.667V13.667h2.667ZM27,13.667V11H24.333V8.333a2.675,2.675,0,0,0-2.667-2.667H19V3H16.333V5.667H13.667V3H11V5.667H8.333A2.675,2.675,0,0,0,5.667,8.333V11H3v2.667H5.667v2.667H3V19H5.667v2.667a2.675,2.675,0,0,0,2.667,2.667H11V27h2.667V24.333h2.667V27H19V24.333h2.667a2.675,2.675,0,0,0,2.667-2.667V19H27V16.333H24.333V13.667Zm-5.333,8H8.333V8.333H21.667Z" transform="translate(-3 -3)" fill="#007cc3"/>
</svg>
