<svg xmlns="http://www.w3.org/2000/svg" width="24.318" height="25" viewBox="0 0 24.318 25">
  <path id="ic_settings_24px" d="M23.72,15.725a9.741,9.741,0,0,0,.087-1.225,9.741,9.741,0,0,0-.087-1.225l2.638-2.062a.631.631,0,0,0,.15-.8l-2.5-4.325a.628.628,0,0,0-.763-.275l-3.112,1.25A9.133,9.133,0,0,0,18.02,5.838l-.475-3.313A.61.61,0,0,0,16.932,2h-5a.61.61,0,0,0-.612.525l-.475,3.313A9.6,9.6,0,0,0,8.732,7.063L5.62,5.813a.61.61,0,0,0-.763.275l-2.5,4.325a.616.616,0,0,0,.15.8l2.638,2.063A9.913,9.913,0,0,0,5.057,14.5a9.913,9.913,0,0,0,.088,1.225L2.507,17.788a.631.631,0,0,0-.15.8l2.5,4.325a.628.628,0,0,0,.763.275l3.113-1.25a9.133,9.133,0,0,0,2.113,1.225l.475,3.313a.61.61,0,0,0,.613.525h5a.61.61,0,0,0,.612-.525l.475-3.312a9.6,9.6,0,0,0,2.113-1.225l3.112,1.25a.61.61,0,0,0,.763-.275l2.5-4.325a.631.631,0,0,0-.15-.8Zm-9.288,3.15A4.375,4.375,0,1,1,18.807,14.5,4.38,4.38,0,0,1,14.432,18.875Z" transform="translate(-2.271 -2)" fill="#007cc3"/>
</svg>
