<svg width="80" height="80" viewBox="0 0 80 80" fill="none" xmlns="http://www.w3.org/2000/svg">
<path d="M30.1303 74.98H28.5303C29.0503 74.98 29.5703 74.97 30.0803 74.94L30.1303 74.98Z" fill="url(#paint0_linear)"/>
<path d="M14.8191 38.38C16.5491 37.1 18.9391 37.22 20.5391 38.67L28.4791 45.9V21.81C28.4791 19.07 30.6992 16.84 33.4492 16.84C36.1891 16.84 38.4191 19.06 38.4191 21.81V36.65L38.5891 36.07C39.1491 34.14 40.9191 32.81 42.9291 32.81C45.0191 32.81 46.8391 34.25 47.3191 36.28L47.5792 37.37L47.9091 37.04C48.9291 36.02 50.3092 35.45 51.7491 35.45C54.3491 35.45 56.5792 37.29 57.0792 39.84L57.5392 42.17C58.3692 40.97 59.7291 40.25 61.1891 40.25C64.0091 40.25 66.2991 42.54 66.2991 45.36V57.77C66.2991 69.37 56.8892 78.78 45.2892 78.78C37.4091 78.78 30.1891 74.37 26.5891 67.36L20.6691 55.82C18.9191 52.41 16.9491 49.11 14.7691 45.96L13.7991 44.56C12.4191 42.56 12.8691 39.83 14.8191 38.38Z" fill="url(#paint1_linear)"/>
<path d="M33.4993 9.71002C27.1993 9.71002 22.0693 14.84 22.0693 21.14C22.0693 25.24 24.2393 28.83 27.4893 30.84V23.41C27.2193 22.71 27.0693 21.94 27.0693 21.14C27.0693 17.59 29.9493 14.71 33.4993 14.71C37.0393 14.71 39.9193 17.59 39.9193 21.14C39.9193 22.01 39.7493 22.84 39.4193 23.6V30.9C42.7093 28.9 44.9193 25.27 44.9193 21.14C44.9193 14.84 39.7993 9.71002 33.4993 9.71002Z" fill="url(#paint2_linear)"/>
<path d="M33.4994 2C22.9494 2 14.3594 10.59 14.3594 21.14C14.3594 29.59 19.8694 36.78 27.4894 39.3V36.11C21.5594 33.72 17.3594 27.91 17.3594 21.14C17.3594 12.24 24.5994 5 33.4994 5C42.3894 5 49.6294 12.24 49.6294 21.14C49.6294 25.46 47.9194 29.39 45.1494 32.28C46.0894 32.69 46.8894 33.35 47.4594 34.2C50.6694 30.78 52.6294 26.18 52.6294 21.14C52.6294 10.59 44.0494 2 33.4994 2Z" fill="url(#paint3_linear)"/>
<defs>
<linearGradient id="paint0_linear" x1="28.5253" y1="74.96" x2="30.1254" y2="74.96" gradientUnits="userSpaceOnUse">
<stop stop-color="#F2DAC7"/>
<stop offset="0.9811" stop-color="#F4C3A2"/>
</linearGradient>
<linearGradient id="paint1_linear" x1="12.9991" y1="47.8173" x2="66.2951" y2="47.8173" gradientUnits="userSpaceOnUse">
<stop stop-color="#866AAC"/>
<stop offset="0.8514" stop-color="#644E9B"/>
<stop offset="0.8825" stop-color="#624D9A"/>
</linearGradient>
<linearGradient id="paint2_linear" x1="22.0644" y1="20.305" x2="44.9144" y2="20.305" gradientUnits="userSpaceOnUse">
<stop stop-color="#E2D4EA"/>
<stop offset="0.7738" stop-color="#C4ADD4"/>
<stop offset="0.9811" stop-color="#BBA2CD"/>
</linearGradient>
<linearGradient id="paint3_linear" x1="14.3545" y1="20.65" x2="52.6245" y2="20.65" gradientUnits="userSpaceOnUse">
<stop stop-color="#E2D4EA"/>
<stop offset="0.7738" stop-color="#C4ADD4"/>
<stop offset="0.9811" stop-color="#BBA2CD"/>
</linearGradient>
</defs>
</svg>
