<svg id="Component_158_1" data-name="Component 158 – 1" xmlns="http://www.w3.org/2000/svg" width="24" height="24" viewBox="0 0 24 24">
  <rect id="Rectangle_1835" data-name="Rectangle 1835" width="24" height="24" fill="none"/>
  <g id="Icon_feather-folder" data-name="Icon feather-folder" transform="translate(-0.5 -1)" fill="none" stroke-linecap="round" stroke-linejoin="round">
    <path d="M23,20.5a2,2,0,0,1-2,2H5a2,2,0,0,1-2-2V6.5a2,2,0,0,1,2-2h5l2,3h9a2,2,0,0,1,2,2Z" stroke="none"/>
    <path d="M 21 20.70000076293945 C 21.11027908325195 20.70000076293945 21.20000076293945 20.61027908325195 21.20000076293945 20.5 L 21.20000076293945 9.5 C 21.20000076293945 9.38971996307373 21.11027908325195 9.300000190734863 21 9.300000190734863 L 12 9.300000190734863 C 11.39815998077393 9.300000190734863 10.83615016937256 8.99921989440918 10.50230979919434 8.498459815979004 L 9.036669731140137 6.300000190734863 L 5 6.300000190734863 C 4.88971996307373 6.300000190734863 4.800000190734863 6.38971996307373 4.800000190734863 6.5 L 4.800000190734863 20.5 C 4.800000190734863 20.61027908325195 4.88971996307373 20.70000076293945 5 20.70000076293945 L 21 20.70000076293945 M 21 22.5 L 5 22.5 C 3.895430088043213 22.5 3 21.60457038879395 3 20.5 L 3 6.5 C 3 5.395430088043213 3.895430088043213 4.5 5 4.5 L 10 4.5 L 12 7.5 L 21 7.5 C 22.10457038879395 7.5 23 8.395429611206055 23 9.5 L 23 20.5 C 23 21.60457038879395 22.10457038879395 22.5 21 22.5 Z" stroke="none"/>
  </g>
</svg>
