<svg width="16" height="16" viewBox="0 0 16 16" fill="none"
  xmlns="http://www.w3.org/2000/svg">
  <path d="M10.8436 4.68394L10.1715 4.01178L4.66021 9.52287C3.97574 10.2073 3.97574 11.3211 4.66021 12.0056C5.34468 12.6901 6.45843 12.6901 7.14293 12.0056L14.5446 4.60375C15.0539 4.09438 15.3345 3.41716 15.3345 2.69681C15.3345 1.97647 15.0539 1.29925 14.5446 0.789875C14.0352 0.280531 13.358 0 12.6376 0C11.9172 0 11.24 0.280531 10.7307 0.789906L1.7314 9.78919C1.04421 10.4764 0.665771 11.39 0.665771 12.3618C0.665771 13.3336 1.04421 14.2472 1.7314 14.9344C2.41858 15.6216 3.33221 16 4.30399 16C5.27577 16 6.1894 15.6216 6.87659 14.9344L13.9853 7.82562L13.3132 7.1535L6.20446 14.2622C5.6968 14.7699 5.0219 15.0494 4.30399 15.0494C3.58608 15.0494 2.91118 14.7699 2.40352 14.2622C1.89587 13.7546 1.61633 13.0797 1.61633 12.3618C1.61633 11.6439 1.89593 10.9689 2.40352 10.4613L11.4028 1.46203C12.0837 0.781187 13.1916 0.781187 13.8725 1.46203C14.5533 2.14291 14.5533 3.25078 13.8725 3.93166L6.47083 11.3334C6.15696 11.6473 5.64624 11.6473 5.33237 11.3334C5.01849 11.0196 5.01849 10.5088 5.33237 10.195L10.8436 4.68394Z" fill="#007CC3"/>
</svg>
