<svg xmlns="http://www.w3.org/2000/svg" width="24" height="16.81" viewBox="0 0 24 16.81"><defs><style>.a{fill:#010101;}</style></defs><g transform="translate(12 8.405)"><g transform="translate(-12 -8.405)"><ellipse class="a" cx="2.01" cy="1.97" rx="2.01" ry="1.97" transform="translate(9.99 5.93)"/><path class="a" d="M20,17.43V5.59H4V17.43ZM7,10.52H8.12a3.52,3.52,0,0,1,.43-1l-.8-.78,1.41-1.4.8.79a3.91,3.91,0,0,1,1-.42V6.57h2V7.69a3.91,3.91,0,0,1,1,.42l.8-.79,1.41,1.4-.8.78a3.52,3.52,0,0,1,.43,1H17v2H15.88a3.52,3.52,0,0,1-.43,1l.8.79-1.41,1.39L14,14.9a3.94,3.94,0,0,1-1,.43v1.11H11V15.33a3.94,3.94,0,0,1-1-.43l-.8.79L7.75,14.3l.8-.79a3.52,3.52,0,0,1-.43-1H7Z" transform="translate(0 -3.6)"/><path class="a" d="M3,4.6H21V17.43h1V4.6a1,1,0,0,0-1-1H3a1,1,0,0,0-1,1V17.43H3Z" transform="translate(0 -3.6)"/><path class="a" d="M0,18.41H24v1a1,1,0,0,1-1,1H1a1,1,0,0,1-1-1Z" transform="translate(0 -3.6)"/></g></g></svg>