<svg xmlns="http://www.w3.org/2000/svg" width="20" height="20" viewBox="0 0 20 20"><g transform="translate(-33.241 -13)"><g transform="translate(-651 -546)"><g transform="translate(165 540.505)"><path d="M34.757,26.117l-7.242-3.87V20.889a2.376,2.376,0,0,0-1.1-2.038,2.17,2.17,0,0,0-2.235-.089l-6.733,3.6A2.388,2.388,0,0,0,16.2,24.493v3.692a2.353,2.353,0,0,0,2.291,2.393h.764l.537,1.507a1.1,1.1,0,0,0,1.018.738h.113a1.1,1.1,0,0,0,.99-.945l.226-1.3h.594V33.03a2.7,2.7,0,0,0,2.631,2.747h3.819l.311,1.684a1.253,1.253,0,0,0,1.075,1.034h.113a1.2,1.2,0,0,0,1.132-.827l.736-1.891h1.018A2.7,2.7,0,0,0,36.2,33.03V28.6A2.746,2.746,0,0,0,34.757,26.117Zm-13.55,3.249-.4,2.156-.792-2.156H18.463a1.191,1.191,0,0,1-1.16-1.211V24.493a1.184,1.184,0,0,1,.622-1.063l6.789-3.6a1.11,1.11,0,0,1,1.132.059,1.179,1.179,0,0,1,.537,1.034v7.3a1.192,1.192,0,0,1-1.16,1.211H21.207ZM35.068,33a1.544,1.544,0,0,1-1.5,1.566H31.787l-.962,2.659c0,.03-.028.059-.085.059a.105.105,0,0,1-.085-.059L30.146,34.6H25.394a1.544,1.544,0,0,1-1.5-1.566V30.578h1.33a2.352,2.352,0,0,0,2.291-2.393V23.577l6.733,3.6a1.549,1.549,0,0,1,.82,1.388Z" transform="translate(503.041)"/></g></g><g transform="matrix(0.914, 0, 0.028, 0.998, 3.847, -16.308)"><g transform="translate(43 37)"><g transform="translate(0 0)"><path d="M3.329,0A.615.615,0,0,1,3.9.649a.646.646,0,0,1-.4.62v.815A2.775,2.775,0,0,1,5.7,3.558l-.009,0A1.633,1.633,0,0,1,6.6,5.064v.454a1.615,1.615,0,0,1-1,1.548l-.022.007h0c-.172.256-3.989.7-4.494.018A1.6,1.6,0,0,1,0,5.519V5.064A1.62,1.62,0,0,1,.978,3.525h0A2.769,2.769,0,0,1,3.157,2.084V1.269a.646.646,0,0,1-.4-.62A.615.615,0,0,1,3.329,0ZM5.166,3.831H1.435A1.169,1.169,0,0,0,.344,5.064v.454c0,.681.488,1.234,4.821,1.234A1.169,1.169,0,0,0,6.256,5.519V5.064A1.169,1.169,0,0,0,5.166,3.831ZM3.329,2.467a2.351,2.351,0,0,0-1.869.974H5.2A2.351,2.351,0,0,0,3.329,2.467Zm0-2.078a.246.246,0,0,0-.23.26.231.231,0,1,0,.459,0A.246.246,0,0,0,3.329.39Z"/><path d="M35.672,72.412a.185.185,0,0,1,.172.195h0v.846a.173.173,0,1,1-.344,0h0v-.846A.185.185,0,0,1,35.672,72.412Zm2.124,0a.185.185,0,0,1,.172.195h0v.846a.173.173,0,1,1-.344,0h0v-.846A.185.185,0,0,1,37.8,72.412Z" transform="translate(-33.462 -67.71)"/></g></g></g></g></svg>