<svg xmlns="http://www.w3.org/2000/svg" width="18" height="20" viewBox="0 0 18 20"><defs><style>.a{fill:#010101;}</style></defs><g transform="translate(11 12)"><g transform="translate(-11 -12)"><path class="a" d="M17.393,12.522h-.941v-.975a1.6,1.6,0,0,0-1.579-1.608H13.294V8.972a.32.32,0,0,0-.091-.232.308.308,0,0,0-.228-.093h-2.52V7.955a1.283,1.283,0,0,0,.931-1.405,1.257,1.257,0,0,0-2.5,0,1.283,1.283,0,0,0,.931,1.405v.692H7.3a.308.308,0,0,0-.228.093.32.32,0,0,0-.091.232v.967H5.4A1.6,1.6,0,0,0,3.82,11.547v.975H2.879a.958.958,0,0,0-.949.967v3.867a.958.958,0,0,0,.949.967H3.82v.967A1.6,1.6,0,0,0,5.4,20.905h9.474a1.6,1.6,0,0,0,1.579-1.617v-.967h.941a.94.94,0,0,0,.676-.28.976.976,0,0,0,.281-.686V13.488a.976.976,0,0,0-.281-.687.94.94,0,0,0-.676-.28ZM9.506,6.738a.63.63,0,1,1,.63.642.636.636,0,0,1-.63-.642ZM2.879,17.68a.308.308,0,0,1-.228-.093.32.32,0,0,1-.091-.232V13.488a.32.32,0,0,1,.091-.232.308.308,0,0,1,.228-.093H3.82V17.68ZM7.608,9.288h5.056v.65H7.608Zm8.182,10a.958.958,0,0,1-.941.975H5.4a.94.94,0,0,1-.679-.283.976.976,0,0,1-.278-.692V11.547a.968.968,0,0,1,.273-.683.932.932,0,0,1,.668-.284h9.491a.932.932,0,0,1,.668.284.968.968,0,0,1,.273.683Zm1.9-1.933a.32.32,0,0,1-.091.232.308.308,0,0,1-.228.093h-.916V13.163h.941a.308.308,0,0,1,.228.093.32.32,0,0,1,.091.232Z" transform="translate(-0.351 -0.905)"/><path class="a" d="M4.827,7a.292.292,0,0,0,.221.1h.123a.333.333,0,0,0,.2-.3V5.833h1.89a.959.959,0,0,0,.925-.992V.967A.959.959,0,0,0,7.257,0H.949A.958.958,0,0,0,0,.967V4.842a.976.976,0,0,0,.269.7.941.941,0,0,0,.68.292H3.657ZM.63,4.842V.967A.322.322,0,0,1,.949.642H7.257a.322.322,0,0,1,.319.325V4.842a.32.32,0,0,1-.094.227.308.308,0,0,1-.225.09H5.048a.322.322,0,0,0-.311.325v.508l-.728-.733a.292.292,0,0,0-.221-.1H.949a.308.308,0,0,1-.225-.09A.32.32,0,0,1,.63,4.842Z" transform="translate(0 0)"/><path class="a" d="M1.54,1.55H7.267v.642H1.54Z" transform="translate(-0.28 -0.258)"/><path class="a" d="M1.54,4.65H7.267v.642H1.54Z" transform="translate(-0.28 -0.775)"/><path class="a" d="M2.31,3.1H6.736v.642H2.31Z" transform="translate(-0.42 -0.517)"/><rect class="a" width="5.048" height="0.858" transform="translate(7.29 16.775)"/><rect class="a" width="0.982" height="2.758" rx="0.491" transform="translate(6.799 11.392)"/><rect class="a" width="0.982" height="2.758" rx="0.491" transform="translate(11.97 11.342)"/></g></g></svg>