<svg xmlns="http://www.w3.org/2000/svg" width="20" height="20" viewBox="0 0 20 20"><defs><style>.a{fill:#010101;}</style></defs><g transform="translate(11.534 12)"><path class="a" d="M3.942,11.573a2.638,2.638,0,0,0-1.148-.265,2.688,2.688,0,1,0,0,5.371,2.633,2.633,0,0,0,2.2-1.193l2.5,1.273a2.492,2.492,0,0,0-.064.592A2.7,2.7,0,0,0,10.061,20a2.668,2.668,0,0,0,2.2-4.15l3.5-3.727a2.638,2.638,0,0,0,1.571.53A2.7,2.7,0,0,0,20,10.011a2.7,2.7,0,0,0-2.652-2.658,2.607,2.607,0,0,0-1.617.565L12.165,4.293a2.7,2.7,0,0,0,.561-1.643,2.651,2.651,0,0,0-5.3-.067,2.552,2.552,0,0,0,.064.592l-2.34.883A2.643,2.643,0,0,0,2.794,2.583,2.7,2.7,0,0,0,.154,5.233a2.7,2.7,0,0,0,2.639,2.65A2.487,2.487,0,0,0,3.85,7.65L5.072,9.733ZM2.794,15.989a2.016,2.016,0,1,1,0-4.028,2.016,2.016,0,1,1,0,4.028Zm2.5-1.1a2.694,2.694,0,0,0-.79-2.951l.919-1.484,2.86,4.894a2.657,2.657,0,0,0-.588.778Zm4.778-9.62A2.534,2.534,0,0,0,11.724,4.7L15.29,8.333a2.657,2.657,0,0,0-.459.954L12.75,9h0A2.7,2.7,0,0,0,10.1,6.346,2.632,2.632,0,0,0,7.865,7.465l-.4-.2,1.5-2.27a2.6,2.6,0,0,0,1.139.274Zm.331,9.426V11.617a2.655,2.655,0,0,0,2.242-1.97l2.08.292h0a2.7,2.7,0,0,0,.588,1.688L11.82,15.345a2.57,2.57,0,0,0-1.424-.653Zm-.331-7.75a2.077,2.077,0,0,1,1.427.612,1.919,1.919,0,0,1,.558,1.4,1.911,1.911,0,0,1-.984,1.716,2.073,2.073,0,0,1-2.038,0,1.911,1.911,0,0,1-.984-1.716,1.92,1.92,0,0,1,.568-1.412,2.079,2.079,0,0,1,1.445-.6Zm-2.5,1.124a2.847,2.847,0,0,0-.147.883A2.681,2.681,0,0,0,9.73,11.6v3.074a2.447,2.447,0,0,0-.873.274L5.844,9.814,7.13,7.827Zm2.49,11.3a2.016,2.016,0,1,1,2.095-2.014,2.056,2.056,0,0,1-2.095,2.014ZM17.329,7.947a2.016,2.016,0,1,1,0,4.028,2.014,2.014,0,0,1,0-4.024ZM10.061.557a2.005,2.005,0,0,1,1.987,2.027,1.906,1.906,0,0,1-.978,1.723,2.069,2.069,0,0,1-2.041,0,1.906,1.906,0,0,1-.978-1.723,1.928,1.928,0,0,1,.565-1.416,2.088,2.088,0,0,1,1.445-.61ZM7.714,3.817a2.66,2.66,0,0,0,.643.833L6.882,6.961l-1.59-.812a2.558,2.558,0,0,0,.156-.883A2.623,2.623,0,0,0,5.362,4.7ZM.809,5.265a1.919,1.919,0,0,1,.558-1.4A2.077,2.077,0,0,1,2.794,3.25a2.077,2.077,0,0,1,1.427.612,1.919,1.919,0,0,1,.558,1.4A2.006,2.006,0,0,1,2.794,7.278,2.006,2.006,0,0,1,.809,5.265ZM4.421,7.35a2.848,2.848,0,0,0,.569-.618L6.515,7.5,5.467,9.167Z" transform="translate(-11.534 -12)"/></g></svg>