<?xml version="1.0" encoding="utf-8"?>
<!-- Generator: Adobe Illustrator 25.0.0, SVG Export Plug-In . SVG Version: 6.00 Build 0)  -->
<svg version="1.1" id="Layer_1" xmlns="http://www.w3.org/2000/svg" xmlns:xlink="http://www.w3.org/1999/xlink" x="0px" y="0px"
	 viewBox="0 0 24 24" style="enable-background:new 0 0 24 24;" xml:space="preserve">
<style type="text/css">
	.st0{fill:#B19999;fill-opacity:0;}
	.st1{fill:#231F20;}
</style>
<rect class="st0" width="24" height="24"/>
<path class="st1" d="M21.2,17.2l-4.4-4.4c-0.8-0.8-2.1-1-3.2-0.5l-4-4V6L4.9,2.4L2.5,4.8l3.6,4.8h2.3l4,4c-0.5,1.1-0.3,2.3,0.5,3.2
	l4.4,4.4c0.5,0.5,1.4,0.5,2,0c0,0,0,0,0,0l2-2C21.7,18.6,21.7,17.7,21.2,17.2z M14.9,10.8c1.1,0,2.1,0.4,2.8,1.2l0.7,0.7
	c0.6-0.3,1.2-0.6,1.6-1.1l0,0c1.3-1.3,1.9-3.3,1.4-5.1c-0.1-0.2-0.3-0.4-0.5-0.3c-0.1,0-0.1,0.1-0.2,0.1L17.9,9l-2.5-0.4L15,6.1
	l2.8-2.8c0.2-0.2,0.2-0.5,0-0.6c-0.1-0.1-0.1-0.1-0.2-0.1c-1.8-0.5-3.8,0.1-5.1,1.4c-1,1-1.6,2.4-1.5,3.9l3.1,3.1
	C14.3,10.8,14.6,10.8,14.9,10.8z M11,13.8l-2.1-2.1l-5.7,5.7c-0.9,0.9-0.9,2.5,0.1,3.4c0.9,0.9,2.4,0.9,3.3,0l4.6-4.6
	C10.9,15.4,10.8,14.6,11,13.8z M4.9,20C4.4,20,4,19.6,4,19.1c0-0.5,0.4-0.9,0.9-0.9s0.9,0.4,0.9,0.9l0,0C5.8,19.6,5.4,20,4.9,20z"/>
</svg>
