<svg xmlns="http://www.w3.org/2000/svg" width="24" height="24" viewBox="0 0 24 24"><defs><style>.a{fill:rgba(255,255,255,0.51);opacity:0;}</style></defs><rect class="a" width="24" height="24"/><g transform="translate(1.959 2.449)"><path d="M17.5,23A10.251,10.251,0,0,0,1.757,35.987l1.326-.9a8.65,8.65,0,1,1,14.338,0l1.326.9A10.248,10.248,0,0,0,17.5,23Z" transform="translate(0 -20)"/></g><g transform="translate(11.265 5.677)"><g transform="translate(0 0)"><ellipse cx="0.98" cy="0.735" rx="0.98" ry="0.735"/></g></g><g transform="translate(5.388 12.044)"><g transform="translate(0 0)"><circle cx="0.735" cy="0.735" r="0.735"/></g></g><g transform="translate(6.857 7.636)"><g transform="translate(0 0)"><ellipse cx="0.98" cy="0.735" rx="0.98" ry="0.735"/></g></g><g transform="translate(17.633 12.044)"><g transform="translate(0 0)"><circle cx="0.735" cy="0.735" r="0.735"/></g></g><g transform="translate(10.929 7.309)"><path d="M230.673,142.491l-1.133-1.133-4.118,4.118a1.3,1.3,0,0,0-.141-.008,1.281,1.281,0,1,0,1.281,1.281,1.3,1.3,0,0,0-.008-.141Z" transform="translate(-224 -141.358)"/></g><g transform="translate(7.806 16.545)"><path d="M146,372v4.805h8.81V372Zm7.208,3.2H147.6v-1.6h5.606Z" transform="translate(-146 -372)"/></g></svg>