<svg xmlns="http://www.w3.org/2000/svg" width="24" height="24" viewBox="0 0 24 24"><defs><style>.a{fill:rgba(56,56,56,0);}.b{fill:none;stroke:#000;stroke-width:1.4px;}</style></defs><rect class="a" width="24" height="24"/><path class="b" d="M1116.018-324.784h-10.029a2.4,2.4,0,0,1-2.4-2.4v-9.207a3,3,0,0,1,2.994-2.994h3.219V-340.8a1.2,1.2,0,0,1,1.2-1.2,1.2,1.2,0,0,1,1.2,1.2v1.421h3.218a3,3,0,0,1,2.994,2.994v9.207A2.4,2.4,0,0,1,1116.018-324.784Zm-1.421-10.105a1.5,1.5,0,0,0-1.5,1.5,1.5,1.5,0,0,0,1.5,1.5,1.5,1.5,0,0,0,1.5-1.5A1.5,1.5,0,0,0,1114.6-334.889Zm-7.187,0a1.5,1.5,0,0,0-1.5,1.5,1.5,1.5,0,0,0,1.5,1.5,1.5,1.5,0,0,0,1.5-1.5A1.5,1.5,0,0,0,1107.41-334.889Zm13.4,5.538h-.732v-5.238h.732a1.2,1.2,0,0,1,1.2,1.2v2.842A1.2,1.2,0,0,1,1120.81-329.351Zm-18.835,0h-.777a1.2,1.2,0,0,1-1.2-1.2v-2.842a1.2,1.2,0,0,1,1.2-1.2h.777v5.237Z" transform="translate(-1099 343)"/></svg>