<svg xmlns="http://www.w3.org/2000/svg" width="24" height="24" viewBox="0 0 24 24"><defs><style>.a{fill:#b19999;opacity:0;}.b{fill:none;stroke:#000;stroke-width:1.2px;}</style></defs><rect class="a" width="24" height="24"/><path class="b" d="M18.7,14.772,14.333,10.4a2.772,2.772,0,0,0-3.188-.519L7.166,5.9V3.584L2.387,0,0,2.389,3.582,7.167H5.9L9.88,11.147a2.778,2.778,0,0,0,.519,3.188l4.371,4.371a1.388,1.388,0,0,0,1.967,0L18.7,16.739a1.4,1.4,0,0,0,0-1.967ZM12.381,8.4a3.928,3.928,0,0,1,2.8,1.157l.724.724a5.284,5.284,0,0,0,1.635-1.1h0a5.371,5.371,0,0,0,1.415-5.1.447.447,0,0,0-.75-.205L15.423,6.648l-2.535-.422-.422-2.535L15.244.915a.451.451,0,0,0-.213-.754,5.377,5.377,0,0,0-5.1,1.415A5.29,5.29,0,0,0,8.394,5.443l3.065,3.065A4.067,4.067,0,0,1,12.381,8.4ZM8.5,11.46,6.386,9.344.7,15.037a2.389,2.389,0,0,0,3.378,3.378L8.689,13.8A4.009,4.009,0,0,1,8.5,11.46ZM2.387,17.62a.9.9,0,1,1,.9-.9A.9.9,0,0,1,2.387,17.62Z" transform="translate(2.504 2.386)"/></svg>