<svg xmlns="http://www.w3.org/2000/svg" width="24" height="24" viewBox="0 0 24 24"><defs><style>.a{fill:rgba(56,56,56,0);}.b{fill:none;stroke:#000;stroke-width:1.4px;}.c{fill:#fff;}.d,.e{stroke:none;}.e{fill:#050505;}</style></defs><rect class="a" width="24" height="24"/><path class="b" d="M1116.018-324.784h-10.029a2.4,2.4,0,0,1-2.4-2.4v-9.207a3,3,0,0,1,2.994-2.994h3.219V-340.8a1.2,1.2,0,0,1,1.2-1.2,1.2,1.2,0,0,1,1.2,1.2v1.421h3.218a3,3,0,0,1,2.994,2.994v9.207A2.4,2.4,0,0,1,1116.018-324.784Zm4.792-4.568h-.732v-5.238h.732a1.2,1.2,0,0,1,1.2,1.2v2.842A1.2,1.2,0,0,1,1120.81-329.351Zm-18.835,0h-.777a1.2,1.2,0,0,1-1.2-1.2v-2.842a1.2,1.2,0,0,1,1.2-1.2h.777v5.237Z" transform="translate(-1099 345)"/><g class="c" transform="translate(-1519 8)"><path class="d" d="M 1531.535888671875 9.454000473022461 L 1530.62060546875 9.454000473022461 L 1530.62060546875 5.893199920654297 L 1530.62060546875 5.393199920654297 L 1530.12060546875 5.393199920654297 L 1526.50048828125 5.393199920654297 L 1526.50048828125 4.499599933624268 L 1530.12060546875 4.499599933624268 L 1530.62060546875 4.499599933624268 L 1530.62060546875 3.999600172042847 L 1530.62060546875 0.4541000723838806 L 1531.535888671875 0.4541000723838806 L 1531.535888671875 3.999600172042847 L 1531.535888671875 4.499599933624268 L 1532.035888671875 4.499599933624268 L 1535.500366210938 4.499599933624268 L 1535.500366210938 5.393199920654297 L 1532.035888671875 5.393199920654297 L 1531.535888671875 5.393199920654297 L 1531.535888671875 5.893199920654297 L 1531.535888671875 9.454000473022461 Z"/><path class="e" d="M 1532.035888671875 9.954000473022461 L 1530.12060546875 9.954000473022461 L 1530.12060546875 5.893199920654297 L 1526.00048828125 5.893199920654297 L 1526.00048828125 3.999600172042847 L 1530.12060546875 3.999600172042847 L 1530.12060546875 -0.04589993506669998 L 1532.035888671875 -0.04589993506669998 L 1532.035888671875 3.999600172042847 L 1536.000366210938 3.999600172042847 L 1536.000366210938 5.893199920654297 L 1532.035888671875 5.893199920654297 L 1532.035888671875 9.954000473022461 Z"/></g></svg>