<svg width="20" height="20" viewBox="0 0 20 20" fill="none" xmlns="http://www.w3.org/2000/svg">
<path d="M16.2821 5H7.05128C5.91839 5 5 5.91839 5 7.05128V11.6667V16.2821C5 17.4149 5.91839 18.3333 7.05128 18.3333H16.2821C17.4149 18.3333 18.3333 17.4149 18.3333 16.2821V7.05128C18.3333 5.91839 17.4149 5 16.2821 5Z" stroke="#737373" stroke-width="2" stroke-linecap="round" stroke-linejoin="round"/>
<path d="M2.25658 15.8333C1.87892 15.4053 1.66675 14.8248 1.66675 14.2194V3.94896C1.66675 3.34364 1.87892 2.76312 2.25658 2.3351C2.63425 1.90709 3.14647 1.66663 3.68057 1.66663H12.7428C13.2769 1.66663 13.7891 1.90709 14.1667 2.3351" stroke="#737373" stroke-width="2" stroke-linecap="round" stroke-linejoin="round"/>
</svg>
