<svg width="20" height="20" viewBox="0 0 20 20" fill="none" xmlns="http://www.w3.org/2000/svg">
<path d="M18.5 10C18.5 14.6944 14.6944 18.5 10 18.5C5.30558 18.5 1.5 14.6944 1.5 10C1.5 5.30558 5.30558 1.5 10 1.5C14.6944 1.5 18.5 5.30558 18.5 10Z" fill="#FF4C61" stroke="#FF4C61" stroke-linecap="round" stroke-linejoin="round"/>
<g clip-path="url(#clip0)">
<path d="M15.8087 13.2632L11.222 5.3188C10.967 4.87705 10.5101 4.61328 9.99999 4.61328C9.48988 4.61328 9.03303 4.87705 8.77799 5.3188L4.1913 13.2632C3.93623 13.705 3.93623 14.2325 4.1913 14.6742C4.44637 15.116 4.90317 15.3797 5.41331 15.3797H14.5867C15.0968 15.3797 15.5536 15.116 15.8087 14.6743C16.0638 14.2325 16.0638 13.705 15.8087 13.2632ZM15.1999 14.3227C15.0719 14.5444 14.8426 14.6767 14.5867 14.6767H5.41331C5.15732 14.6767 4.92811 14.5444 4.80014 14.3227C4.67217 14.1011 4.67217 13.8364 4.80014 13.6147L9.38687 5.67033C9.51484 5.44866 9.74406 5.31633 10 5.31633C10.256 5.31633 10.4852 5.44866 10.6132 5.67033L15.1999 13.6147C15.3278 13.8364 15.3278 14.1011 15.1999 14.3227Z" fill="#FCFCFF"/>
<path d="M10.3515 8.125H9.64844V11.6402H10.3515V8.125Z" fill="#FCFCFF"/>
<path d="M9.99996 12.3438C9.74151 12.3438 9.53125 12.554 9.53125 12.8125C9.53125 13.0709 9.74151 13.2812 9.99996 13.2812C10.2584 13.2812 10.4687 13.0709 10.4687 12.8125C10.4687 12.554 10.2584 12.3438 9.99996 12.3438Z" fill="#FCFCFF"/>
</g>
<defs>
<clipPath id="clip0">
<rect width="12" height="12" fill="white" transform="translate(4 4)"/>
</clipPath>
</defs>
</svg>
