<svg xmlns="http://www.w3.org/2000/svg" width="21.681" height="20.84" viewBox="0 0 21.681 20.84"><defs><style>.a{fill:none;}.a,.d,.e,.f{stroke:#231f20;stroke-miterlimit:10;}.a,.e{stroke-width:1.681px;}.b{fill:rgba(1,1,1,0);}.c{fill:#010101;}.d{fill:#fff;}.d,.f{stroke-width:1.5px;}.e,.f{fill:#231f20;}</style></defs><g transform="translate(12.84 12.298)"><g transform="translate(-12 -11.457)"><rect class="a" width="20" height="13.233" rx="0.885"/><g transform="translate(1.653 2.885)"><rect class="b" width="7.162" height="7.413"/><path class="c" d="M8.909,6.809a2.992,2.992,0,0,0-4.323,0,3.261,3.261,0,0,0-.373,4.02l.393-.284a2.752,2.752,0,0,1-.391-2.007A2.658,2.658,0,0,1,5.3,6.839a2.523,2.523,0,0,1,3.583.724,2.744,2.744,0,0,1,0,2.983l.392.284a3.261,3.261,0,0,0-.372-4.02Z" transform="translate(-3.101 -5.127)"/><ellipse class="c" cx="0.289" cy="0.225" rx="0.289" ry="0.225" transform="translate(3.362 1.761)"/><ellipse class="c" cx="0.215" cy="0.225" rx="0.215" ry="0.225" transform="translate(1.606 3.726)"/><ellipse class="c" cx="0.289" cy="0.225" rx="0.289" ry="0.225" transform="translate(2.045 2.366)"/><ellipse class="c" cx="0.215" cy="0.225" rx="0.215" ry="0.225" transform="translate(5.266 3.726)"/><path class="c" d="M8.548,7.772,8.2,7.423,6.969,8.692h0a.376.376,0,0,0-.378.179.417.417,0,0,0,0,.434.376.376,0,0,0,.378.179.364.364,0,0,0,.27-.111.4.4,0,0,0,.113-.28v-.05Z" transform="translate(-3.291 -5.161)"/><path class="c" d="M5.56,10.34v1.484H8.183V10.34Zm2.148.978H6.036v-.489H7.707Z" transform="translate(-3.226 -5.225)"/></g><g transform="translate(11.261 3.853)"><path d="M18.725,11.371H13.8V10.028h0l.738-.763.644.656a.217.217,0,0,0,.262.049l.093-.049.551-.567,1.157,1.2a.245.245,0,0,0,.167.079h0a.236.236,0,0,0,.177-.068l.822-.851v.7a.249.249,0,0,0,.233.254h0a.247.247,0,0,0,.242-.235V9.1h0V9.054h0a.193.193,0,0,0-.122-.068H17.487a.245.245,0,0,0,0,.489h.672l-.672.7L16.45,8.994l2.017-2.073v.7a.249.249,0,0,0,.233.254h0a.239.239,0,0,0,.233-.244V6.32h0V6.247h0V6.187h0a.143.143,0,0,0-.1,0H17.552a.251.251,0,0,0,.009.5h.672L16.114,8.643l-1.363-1.4h0a.242.242,0,0,0-.346,0l-.579.6V6.305a.241.241,0,0,0-.476,0V11.63a.248.248,0,0,0,.243.244h5.126a.228.228,0,0,0,.171-.068.254.254,0,0,0-.162-.43ZM13.8,8.5h0l.738-.753L15.75,9l-.382.4-.635-.656-.1-.049a.241.241,0,0,0-.262.049l-.588.607Z" transform="translate(-13.35 -6.1)"/></g><path class="d" d="M15.94,22.61" transform="translate(-2.261 -2.61)"/><path class="e" d="M9.7,14.95v5.164h2.661V14.95" transform="translate(-1.343 -1.063)"/><path class="f" d="M6.07,16.36" transform="translate(-1.607 -2.473)"/><rect class="c" width="9.374" height="3.022" transform="translate(5.014 16.812)"/></g></g></svg>