<svg xmlns="http://www.w3.org/2000/svg" width="24" stroke="none" height="24" viewBox="0 0 24 24" class="svg-digital-ai-brain-icon">
  <defs>
    <style>
    .svg-digital-ai-brain-icon {
        height: inherit;
        width: inherit;
      }
	  <!-- @media screen and (min-width: 5000px) {
       .svg-digital-ai-brain-icon {
        height: 4vmin !important;
        width: 4vmin !important;
       }
	  }
	  @media screen and (min-width: 1300px) and (max-width: 3000px) {
       .svg-digital-ai-brain-icon {
        height: 4vmin !important;
        width: 4vmin !important;
       }
	  }
	  @media screen and (max-width: 600px) {
       .svg-digital-ai-brain-icon {
        height: 4vmin !important;
        width: 4vmin !important;
       }
	  } -->
    </style>
  </defs>
  <g id="digital-ai-brain" transform="translate(-12.32 220.864)">
    <rect id="Rectangle_12" data-name="Rectangle 12" width="24" height="24" transform="translate(12.32 -220.864)" fill="none"/>
    <path id="Path_51" data-name="Path 51" d="M21.395-219.806a4.821,4.821,0,0,0-3.62,2.058c-.145.248-.341.455-.434.455a4.457,4.457,0,0,0-1.82,1.138A5.922,5.922,0,0,0,14.755-215a9.089,9.089,0,0,0-.755,2.73,12.244,12.244,0,0,0,.631,2.648l.2.517-.352.724a2.363,2.363,0,0,0-.372,1.924,3.586,3.586,0,0,0,1.624,2.255c.507.341.558.4.486.652a3.123,3.123,0,0,0-.134,1.479c.041.248.083.486.093.527a3.1,3.1,0,0,0,.527.641,3.3,3.3,0,0,0,1.955,1.024c.3.052.414.155.641.569a2.984,2.984,0,0,0,2.586,1.427,2.162,2.162,0,0,0,1.841-.538c.3-.321.424-.321.683-.041a2.68,2.68,0,0,0,2.668.455,2.945,2.945,0,0,0,1.789-1.262c.31-.5.31-.5,1.107-.621,2.006-.321,3.072-1.707,2.606-3.382-.186-.662-.217-.6.383-.972a2.915,2.915,0,0,0,1.107-2.534,2.351,2.351,0,0,0-.569-1.81l-.279-.341.269-.61c1.189-2.761.507-5.647-1.707-7.126a5.224,5.224,0,0,0-1.1-.559.964.964,0,0,1-.7-.548,4.664,4.664,0,0,0-2-1.7,6.016,6.016,0,0,0-2.42-.383,2.361,2.361,0,0,0-1.345.6c-.021.062-.248-.021-.579-.217a1.97,1.97,0,0,0-1.231-.362A5.993,5.993,0,0,0,21.395-219.806Zm1.727,1c.445.331.5.734.5,3.734v2.844H22.181l-.031-1.169-.031-1.158-.962-.031-.962-.031-.362-.4a1.212,1.212,0,0,0-1.562-.341,1.264,1.264,0,0,0-.8,1.282.969.969,0,0,0,.383.9.982.982,0,0,0,.952.372c.558.01.6-.01.993-.434.372-.393.455-.434.92-.434h.517v2.379h2.379v3.93h-3.31v2.865l-.4.321a1.222,1.222,0,0,0-.476,1.541,1.257,1.257,0,0,0,1.272.858,1.2,1.2,0,0,0,1.365-1.324.987.987,0,0,0-.414-.972l-.414-.414v-1.944h2.379v6.95l-.352.352c-.341.341-.372.352-1.169.352a2.182,2.182,0,0,1-2.337-1.4c-.145-.4-.155-.414-.807-.517-1.789-.3-2.513-1.541-1.748-3,.362-.683.352-.672.165-.672a4.751,4.751,0,0,1-1.882-1.107A2.68,2.68,0,0,1,15-207.3a2.112,2.112,0,0,1,.569-1.231l.31-.383H16.7c.786,0,.827.01.92.259a1.353,1.353,0,0,0,1.2.672,1.354,1.354,0,0,0,.931-2.337,1.28,1.28,0,0,0-2.048.207l-.238.372-.983-.021-.983-.031-.248-.724a5.775,5.775,0,0,1,.424-4.4,3.385,3.385,0,0,1,2.275-1.655c.217,0,.29-.062.341-.321.155-.683,1.417-1.624,2.586-1.913A4.723,4.723,0,0,1,23.122-218.8Zm4.22.021a2.92,2.92,0,0,1,1.913,1.562c.279.579.341.631.693.683A4.363,4.363,0,0,1,32.7-214.4a5.179,5.179,0,0,1-.124,4.747l-.362.869.455.507a2.1,2.1,0,0,1,.486,2.079c-.124.631-.538,1.314-.807,1.314-.114,0-.145-.2-.145-.983v-.983l-2.141-.021-2.151-.031-.031-.776c-.031-.776-.031-.776.3-.972a1.459,1.459,0,0,0,.527-.662.963.963,0,0,0,.093-.858,1.887,1.887,0,0,0-.476-.7,1.074,1.074,0,0,0-.9-.321.971.971,0,0,0-.92.4.954.954,0,0,0-.4.879,1.441,1.441,0,0,0,.61,1.282l.321.238v2.368h4.344v1.086a3.326,3.326,0,0,0,.165,1.417,3.015,3.015,0,0,1,.217.9,1.148,1.148,0,0,1-.2.941,2.658,2.658,0,0,1-2.069.972l-.931.114-.134.4a2.063,2.063,0,0,1-1.334,1.251,3.185,3.185,0,0,1-1.986-.01c-.486-.321-.558-.631-.558-2.265v-1.5h1.024c.941,0,1.034.021,1.1.207a1.293,1.293,0,0,0,.4.465,1.634,1.634,0,0,0,1.613.093,1.373,1.373,0,0,0,.414-1.872,1.4,1.4,0,0,0-2.348-.031l-.176.31H24.549v-10.136h3.992l.176.3a1.347,1.347,0,0,0,2.131.155,1.071,1.071,0,0,0,.321-.92,1.208,1.208,0,0,0-.941-1.293,1.307,1.307,0,0,0-1.427.476l-.31.352H24.549v-1.582c0-2.482.145-2.761,1.417-2.761A6.038,6.038,0,0,1,27.342-218.782Zm-8.181,4.323a.651.651,0,0,1,.093.445c-.062.527-.91.424-.91-.114A.474.474,0,0,1,19.161-214.458Zm11.056-.021a.533.533,0,0,1-.021.693.635.635,0,0,1-.434.093.457.457,0,0,1,.041-.91A.679.679,0,0,1,30.217-214.479Zm-2.41,4.323a.393.393,0,0,1,.093.5c-.083.228-.155.279-.455.279s-.372-.052-.455-.279a.393.393,0,0,1,.093-.5.628.628,0,0,1,.362-.207A.628.628,0,0,1,27.807-210.156Zm-8.729.414a.5.5,0,0,1-.052.838.45.45,0,0,1-.683-.424C18.344-209.753,18.685-209.949,19.078-209.742Zm1.965,6.3c.207.165.228.238.145.486a.494.494,0,0,1-.817.2c-.217-.228-.207-.424.041-.672S20.743-203.692,21.043-203.444Zm7.209-.031c.269.186.29.424.052.683a.475.475,0,0,1-.858-.29.748.748,0,0,1,.517-.559A.991.991,0,0,1,28.252-203.475Z"/>
  </g>
</svg>
