<svg xmlns="http://www.w3.org/2000/svg" width="16" height="20" viewBox="0 0 16 20"><defs><style>.a{fill:#010101;}</style></defs><g transform="translate(9.309 12)"><g transform="translate(-9.309 -12)"><path class="a" d="M14.79,2H9.21a1,1,0,1,1,0-2h5.58a1,1,0,0,1,0,2Z" transform="translate(-4)"/><path class="a" d="M15.032,20H7.065c-2.5,0-4.254-1.385-4.366-3.45a3.751,3.751,0,0,1,.584-2.256L7.873,7.387a2.545,2.545,0,0,0,.421-1.41V1.341a.8.8,0,0,1,1.6,0V5.977a4.242,4.242,0,0,1-.7,2.347l-4.581,6.9A2.072,2.072,0,0,0,4.3,16.451c.06,1.153,1.152,1.891,2.767,1.891h7.967a2.049,2.049,0,0,0,2.054-1.891,2.073,2.073,0,0,0-.318-1.236L12.2,8.324a4.242,4.242,0,0,1-.7-2.347V1.341a.8.8,0,0,1,1.6,0V5.977a2.545,2.545,0,0,0,.421,1.41l4.581,6.9a3.727,3.727,0,0,1,.593,2.256A3.652,3.652,0,0,1,15.032,20Z" transform="translate(-2.691)"/><path class="a" d="M14.138,20H7.256a1.006,1.006,0,0,1-.826-1.11,1.392,1.392,0,0,1,.161-.65h0L8.625,14.5a.51.51,0,0,1,.39-.29.679.679,0,0,0,.352-.12l.443-.31a1.519,1.519,0,0,1,1.751,0l.451.31a.7.7,0,0,0,.352.12.529.529,0,0,1,.4.29l2.011,3.68v.05a1.468,1.468,0,0,1,.161.66,1.019,1.019,0,0,1-.8,1.11Z" transform="translate(-2.691 -3.086)"/></g></g></svg>