<svg xmlns="http://www.w3.org/2000/svg" width="20" height="20" viewBox="0 0 20 20"><defs><style>.a{fill:#010101;}</style></defs><g transform="translate(12.017 12.005)"><g transform="translate(-12.017 -12.005)"><path class="a" d="M2.66,18.8H5.22v2.56H2.66Z" transform="translate(-0.001 -3.999)"/><path class="a" d="M12.65,12.75a.43.43,0,0,1,0-.6.85.85,0,1,0-1.2,0,.43.43,0,0,1,0,.6l-.28.28a5.29,5.29,0,0,0-1.25,2h0a3.45,3.45,0,0,0,1.81.74h.64a3.45,3.45,0,0,0,1.81-.74h0a5.29,5.29,0,0,0-1.25-2Z" transform="translate(-2.025 -2.256)"/><path class="a" d="M12.05,8.13A3.83,3.83,0,0,0,9.2,14.54a6.1,6.1,0,0,1,1.37-2.12h0a1.71,1.71,0,1,1,2.94,0h0a6.1,6.1,0,0,1,1.37,2.12,3.83,3.83,0,0,0-2.85-6.41Z" transform="translate(-2.024 -1.844)"/><path class="a" d="M5.22,3.86A1.28,1.28,0,1,1,3.94,2.58,1.28,1.28,0,0,1,5.22,3.86Z" transform="translate(-0.001 0.011)"/><path class="a" d="M7.78,3.86a3.85,3.85,0,1,0-1.44,3l.87.88.61-.61-.88-.87a3.81,3.81,0,0,0,.84-2.4ZM3.94,6A2.14,2.14,0,1,1,6.08,3.86,2.14,2.14,0,0,1,3.94,6Z" transform="translate(-0.001 0.011)"/><path class="a" d="M18.88,19.44v1.28l1.28,1,1.28-1V19.44l-1.28-1Z" transform="translate(-4.036 -3.999)"/><path class="a" d="M20.16,16.24a3.87,3.87,0,0,0-2.4.84l-1.3-1.3-.6.6,1.3,1.3a3.84,3.84,0,1,0,3-1.44Zm2.13,4.69a.41.41,0,0,1-.17.34l-1.71,1.29a.44.44,0,0,1-.51,0l-1.71-1.29a.44.44,0,0,1-.17-.34v-1.7a.47.47,0,0,1,.17-.35L19.9,17.6a.44.44,0,0,1,.51,0l1.71,1.28a.44.44,0,0,1,.17.35Z" transform="translate(-4.036 -3.999)"/><path class="a" d="M2.66,9.84h.85v.85H2.66Z" transform="translate(-0.001 -1.694)"/><path class="a" d="M2.66,11.54h.85v.86H2.66Z" transform="translate(-0.001 -1.99)"/><path class="a" d="M2.66,13.25h.85v.85H2.66Z" transform="translate(-0.001 -2.285)"/><path class="a" d="M21.86,9.84h.86v.85h-.86Z" transform="translate(-4.036 -1.694)"/><path class="a" d="M21.86,11.54h.86v.86h-.86Z" transform="translate(-4.036 -1.99)"/><path class="a" d="M21.86,13.25h.86v.85h-.86Z" transform="translate(-4.036 -2.285)"/><path class="a" d="M9.92,1.3h.85v.85H9.92Z" transform="translate(-1.727 0.011)"/><path class="a" d="M11.62,1.3h.86v.85h-.86Z" transform="translate(-2.024 0.011)"/><path class="a" d="M13.33,1.3h.85v.85h-.85Z" transform="translate(-2.321 0.011)"/><path class="a" d="M9.92,21.79h.85v.85H9.92Z" transform="translate(-1.727 -3.999)"/><path class="a" d="M11.62,21.79h.86v.85h-.86Z" transform="translate(-2.024 -3.999)"/><path class="a" d="M13.33,21.79h.85v.85h-.85Z" transform="translate(-2.321 -3.999)"/><path class="a" d="M20.16,3l-1,1.7H21.1Z" transform="translate(-4.036 0.011)"/><path class="a" d="M17,6.3l-.2,1.28,1.39-.3h.09a.39.39,0,0,1,.18,0A3.85,3.85,0,1,0,17,6,.39.39,0,0,1,17,6.3Zm1-1.37,1.71-3a.44.44,0,0,1,.74,0l1.71,3a.47.47,0,0,1,0,.43.44.44,0,0,1-.38.21H18.45a.44.44,0,0,1-.37-.21.42.42,0,0,1,0-.43Z" transform="translate(-4.036 0.011)"/><path class="a" d="M7.21,15.78,6.09,16.9a3.89,3.89,0,1,0,.65.56l1.08-1.08Zm-1.13,6a.43.43,0,0,1-.43.42H2.23a.42.42,0,0,1-.42-.42V18.37A.42.42,0,0,1,2.23,18H5.65a.43.43,0,0,1,.43.42Z" transform="translate(-0.001 -3.999)"/></g></g></svg>