<svg xmlns="http://www.w3.org/2000/svg" height="24" width = "24" viewBox="0 0 20 20" class="svg-experience-icon">
  <defs>
    <style>
    .svg-experience-icon {
        height: inherit;
        width: inherit;
      }
	  <!-- @media screen and (min-width: 5000px) {
       .svg-experience-icon {
        height: 4vmin !important;
        width: 4vmin !important;
      }
       }
       @media screen and (min-width: 1300px) and (max-width: 3000px) {
       .svg-experience-icon {
        height: 4vmin !important;
        width: 4vmin !important;
       }
	  }
	  @media screen and (max-width: 600px) {
       .svg-experience-icon {
        height: 4vmin !important;
        width: 4vmin !important;
       }
	  } -->
    </style>
  </defs>
  <g id="Experience" transform="translate(1.358 1)">
    <rect id="Rectangle_10" data-name="Rectangle 10" fill="none" width="20" height="20" transform="translate(-1.358 -1)"/>
    <g id="Group_7" data-name="Group 7" transform="translate(0 0)">
      <path id="Path_25" data-name="Path 25" fill="currentColor" stroke="none" d="M2.66,18.8h2.3v2.3H2.66Z" transform="translate(-0.267 -5.479)"/>
      <path id="Path_26" data-name="Path 26" fill="currentColor" stroke="none" d="M12.377,12.545a.387.387,0,0,1,0-.54.765.765,0,1,0-1.08,0,.387.387,0,0,1,0,.54l-.252.252A4.761,4.761,0,0,0,9.92,14.6h0a3.1,3.1,0,0,0,1.629.666h.576a3.1,3.1,0,0,0,1.629-.666h0a4.761,4.761,0,0,0-1.125-1.8Z" transform="translate(-2.815 -3.1)"/>
      <path id="Path_27" data-name="Path 27" fill="currentColor" stroke="none" d="M11.665,8.13A3.447,3.447,0,0,0,9.1,13.9a5.49,5.49,0,0,1,1.233-1.908h0a1.539,1.539,0,1,1,2.646,0h0A5.49,5.49,0,0,1,14.212,13.9,3.447,3.447,0,0,0,11.647,8.13Z" transform="translate(-2.642 -2.472)"/>
      <path id="Path_28" data-name="Path 28" fill="currentColor" stroke="none" d="M4.964,3.732A1.152,1.152,0,1,1,3.812,2.58,1.152,1.152,0,0,1,4.964,3.732Z" transform="translate(-0.267 -0.248)"/>
      <path id="Path_29" data-name="Path 29" fill="currentColor" stroke="none" d="M7.01,3.475a3.465,3.465,0,1,0-1.3,2.7l.783.792.549-.549-.792-.783a3.429,3.429,0,0,0,.756-2.16ZM3.554,5.4A1.926,1.926,0,1,1,5.48,3.475,1.926,1.926,0,0,1,3.554,5.4Z" transform="translate(-0.009 0.01)"/>
      <path id="Path_30" data-name="Path 30" fill="currentColor" stroke="none" d="M18.88,19.34v1.152l1.152.9,1.152-.9V19.34l-1.152-.9Z" transform="translate(-5.521 -5.443)"/>
      <path id="Path_31" data-name="Path 31" fill="currentColor" stroke="none" d="M19.73,16.194a3.483,3.483,0,0,0-2.16.756L16.4,15.78l-.54.54,1.17,1.17a3.456,3.456,0,1,0,2.7-1.3Zm1.917,4.221a.369.369,0,0,1-.153.306l-1.539,1.161a.4.4,0,0,1-.459,0l-1.539-1.161a.4.4,0,0,1-.153-.306v-1.53a.423.423,0,0,1,.153-.315L19.5,17.418a.4.4,0,0,1,.459,0l1.539,1.152a.4.4,0,0,1,.153.315Z" transform="translate(-5.219 -5.177)"/>
      <path id="Path_32" data-name="Path 32" fill="currentColor" stroke="none" d="M2.66,9.84h.765V10.6H2.66Z" transform="translate(-0.267 -2.508)"/>
      <path id="Path_33" data-name="Path 33" fill="currentColor" stroke="none" d="M2.66,11.54h.765v.774H2.66Z" transform="translate(-0.267 -2.945)"/>
      <path id="Path_34" data-name="Path 34" fill="currentColor" stroke="none" d="M2.66,13.25h.765v.765H2.66Z" transform="translate(-0.267 -3.381)"/>
      <path id="Path_35" data-name="Path 35" fill="currentColor" stroke="none" d="M21.86,9.84h.774V10.6H21.86Z" transform="translate(-5.819 -2.508)"/>
      <path id="Path_36" data-name="Path 36" fill="currentColor" stroke="none" d="M21.86,11.54h.774v.774H21.86Z" transform="translate(-5.819 -2.945)"/>
      <path id="Path_37" data-name="Path 37" fill="currentColor" stroke="none" d="M21.86,13.25h.774v.765H21.86Z" transform="translate(-5.819 -3.381)"/>
      <path id="Path_38" data-name="Path 38" fill="currentColor" stroke="none" d="M9.92,1.3h.765v.765H9.92Z" transform="translate(-2.547 -0.12)"/>
      <path id="Path_39" data-name="Path 39" fill="currentColor" stroke="none" d="M11.62,1.3h.774v.765H11.62Z" transform="translate(-2.984 -0.12)"/>
      <path id="Path_40" data-name="Path 40" fill="currentColor" stroke="none" d="M13.33,1.3h.765v.765H13.33Z" transform="translate(-3.422 -0.12)"/>
      <path id="Path_41" data-name="Path 41" fill="currentColor" stroke="none" d="M9.92,21.79h.765v.765H9.92Z" transform="translate(-2.547 -5.778)"/>
      <path id="Path_42" data-name="Path 42" fill="currentColor" stroke="none" d="M11.62,21.79h.774v.765H11.62Z" transform="translate(-2.984 -5.778)"/>
      <path id="Path_43" data-name="Path 43" fill="currentColor" stroke="none" d="M13.33,21.79h.765v.765H13.33Z" transform="translate(-3.422 -5.778)"/>
      <path id="Path_44" data-name="Path 44" fill="currentColor" stroke="none" d="M20.06,3l-.9,1.53h1.746Z" transform="translate(-5.549 -0.29)"/>
      <path id="Path_45" data-name="Path 45" fill="currentColor" stroke="none" d="M16.934,5.669l-.18,1.152L18,6.551h.081a.351.351,0,0,1,.162,0A3.465,3.465,0,1,0,16.934,5.4.351.351,0,0,1,16.934,5.669Zm.9-1.233,1.539-2.7a.4.4,0,0,1,.666,0l1.539,2.7a.423.423,0,0,1,0,.387.4.4,0,0,1-.342.189h-3a.4.4,0,0,1-.333-.189.378.378,0,0,1,0-.387Z" transform="translate(-5.267 0.011)"/>
      <path id="Path_46" data-name="Path 46" fill="currentColor" stroke="none" d="M6.489,15.78,5.481,16.788a3.5,3.5,0,1,0,.585.5l.972-.972Zm-1.017,5.4a.387.387,0,0,1-.387.378H2.007a.378.378,0,0,1-.378-.378V18.111a.378.378,0,0,1,.378-.333H5.085a.387.387,0,0,1,.387.378Z" transform="translate(-0.001 -5.177)"/>
    </g>
  </g>
</svg>
