<svg xmlns="http://www.w3.org/2000/svg" width="24" height="24" viewBox="0 0 24 24"><defs><style>.a,.b{fill:none;}.a{stroke:#000;stroke-linecap:round;stroke-linejoin:round;stroke-width:1.5px;}</style></defs><g transform="translate(-270 -346)"><g transform="translate(270 346)"><path class="a" d="M4.8,3H19.2A1.8,1.8,0,0,1,21,4.8V8.4a1.8,1.8,0,0,1-1.8,1.8H4.8A1.8,1.8,0,0,1,3,8.4V4.8A1.8,1.8,0,0,1,4.8,3Z"/><path class="a" d="M4.8,21H19.2A1.8,1.8,0,0,1,21,22.8v3.6a1.8,1.8,0,0,1-1.8,1.8H4.8A1.8,1.8,0,0,1,3,26.4V22.8A1.8,1.8,0,0,1,4.8,21Z" transform="translate(0 -7.2)"/><path class="a" d="M9,9H9" transform="translate(-2.4 -2.4)"/><path class="a" d="M9,27H9" transform="translate(-2.4 -9.6)"/></g><rect class="b" width="24" height="24" transform="translate(270 346)"/></g></svg>