<svg xmlns="http://www.w3.org/2000/svg" width="115.47" height="102.169" viewBox="0 0 115.47 102.169"><defs><style>.a{fill:#fff;}.b{fill:none;}.c,.d{stroke:none;}.d{fill:#fff;}</style></defs><g transform="translate(-618.998 -248)"><g transform="translate(-3948.148 -4781.549)"><path class="a" d="M327.049,748.776a3.7,3.7,0,0,0-3.7,3.7v19.006a3.7,3.7,0,0,0,7.409,0V752.476A3.7,3.7,0,0,0,327.049,748.776Z" transform="translate(4297.817 4321.772)"/><path class="a" d="M328.479,756.435a3.671,3.671,0,0,0-4.049.828,3.7,3.7,0,0,0,2.615,6.315,3.72,3.72,0,0,0,3.7-3.7,3.585,3.585,0,0,0-1.09-2.615A3.824,3.824,0,0,0,328.479,756.435Z" transform="translate(4297.807 4346.612)"/></g><g class="b" transform="translate(615.363 242.97)"><path class="c" d="M55.463,8.448a6.814,6.814,0,0,1,11.814,0l50.911,88.54a6.814,6.814,0,0,1-5.907,10.211H10.459A6.814,6.814,0,0,1,4.552,96.989Z"/><path class="d" d="M 61.37014007568359 7.530677795410156 C 59.80735778808594 7.530677795410156 58.40926361083984 8.339492797851563 57.63028717041016 9.69427490234375 L 6.719505310058594 98.23477172851563 C 5.94287109375 99.58541870117188 5.945014953613281 101.1969146728516 6.725212097167969 102.5454940795898 C 7.505393981933594 103.8940734863281 8.901336669921875 104.6992034912109 10.45934295654297 104.6992034912109 L 112.2809219360352 104.6992034912109 C 113.8389434814453 104.6992034912109 115.2348861694336 103.8940734863281 116.0150680541992 102.5454940795898 C 116.7952651977539 101.1969146728516 116.7973937988281 99.58541870117188 116.0207595825195 98.23477172851563 L 65.10997772216797 9.69427490234375 C 64.33099365234375 8.339492797851563 62.93292236328125 7.530677795410156 61.37014007568359 7.530677795410156 M 61.37013626098633 5.030670166015625 C 63.6686897277832 5.030670166015625 65.96723937988281 6.169815063476563 67.27725219726563 8.448097229003906 L 118.1880340576172 96.98858642578125 C 120.8000869750977 101.5312805175781 117.5210113525391 107.1992034912109 112.2809219360352 107.1992034912109 L 10.45934295654297 107.1992034912109 C 5.219268798828125 107.1992034912109 1.940193176269531 101.5312805175781 4.552230834960938 96.98858642578125 L 55.4630126953125 8.448097229003906 C 56.77303314208984 6.169815063476563 59.07158660888672 5.030670166015625 61.37013626098633 5.030670166015625 Z"/></g></g></svg>