<svg id="icon_AHD" xmlns="http://www.w3.org/2000/svg" width="24" height="24" viewBox="0 0 24 24">
  <g id="Group_4323" data-name="Group 4323" transform="translate(-308.618 -1214.635)">
    <path id="Path_5360" data-name="Path 5360" d="M322.979,1224.132l-3.963,3.943-.83-.849a.849.849,0,0,0-1.215,1.187l1.4,1.43c.009.01.023.013.033.022l.008.012a.851.851,0,0,0,1.2,0l4.566-4.543a.85.85,0,0,0-1.2-1.205Z"/>
    <path id="Path_5361" data-name="Path 5361" d="M329.936,1223.933l-1.169-.235c-.092-.254-.2-.5-.31-.748l.66-.991a.851.851,0,0,0-.105-1.073l-2.643-2.643a.846.846,0,0,0-1.072-.108l-.994.661c-.245-.115-.495-.218-.748-.31l-.234-1.168a.848.848,0,0,0-.833-.683h-3.739a.849.849,0,0,0-.833.683l-.234,1.169c-.254.092-.505.195-.749.309l-.991-.66a.85.85,0,0,0-1.073.107l-2.643,2.643a.851.851,0,0,0-.107,1.073l.661.991c-.115.244-.218.494-.31.748l-1.169.235a.847.847,0,0,0-.683.833v3.738a.848.848,0,0,0,.683.833l1.169.234q.138.383.31.75l-.661.991a.85.85,0,0,0,.107,1.072l2.643,2.644a.85.85,0,0,0,1.073.106l.991-.661q.366.172.749.311l.234,1.169a.849.849,0,0,0,.833.682h3.739a.848.848,0,0,0,.833-.682l.234-1.169c.254-.092.5-.2.748-.311l.993.661a.848.848,0,0,0,1.072-.106l2.644-2.644a.848.848,0,0,0,.106-1.072l-.661-.991c.115-.246.219-.5.311-.75l1.168-.234a.848.848,0,0,0,.682-.833v-3.738A.848.848,0,0,0,329.936,1223.933Zm-1.017,3.874-.973.195a.848.848,0,0,0-.649.6,6.852,6.852,0,0,1-.569,1.374.852.852,0,0,0,.039.879l.55.824-1.658,1.658-.825-.55a.85.85,0,0,0-.88-.038,7,7,0,0,1-1.374.57.848.848,0,0,0-.594.648l-.2.973h-2.344l-.2-.973a.848.848,0,0,0-.593-.648,6.905,6.905,0,0,1-1.375-.57.85.85,0,0,0-.88.038l-.825.55-1.658-1.658.55-.824a.849.849,0,0,0,.038-.88,6.941,6.941,0,0,1-.569-1.375.849.849,0,0,0-.649-.594l-.973-.195v-2.344l.973-.2a.85.85,0,0,0,.649-.594,6.947,6.947,0,0,1,.569-1.374.849.849,0,0,0-.038-.88l-.55-.825,1.658-1.658.825.549a.852.852,0,0,0,.879.039,6.977,6.977,0,0,1,1.376-.569.848.848,0,0,0,.593-.649l.2-.973h2.344l.2.973a.848.848,0,0,0,.6.65,6.877,6.877,0,0,1,1.374.568.85.85,0,0,0,.878-.038l.826-.55,1.657,1.658-.549.825a.852.852,0,0,0-.039.879,6.891,6.891,0,0,1,.57,1.375.85.85,0,0,0,.648.594l.973.2Z"/>
  </g>
</svg>
