<svg xmlns="http://www.w3.org/2000/svg" width="24" height="24" viewBox="0 0 24 24"><g transform="translate(-502.418 -933.911)"><path d="M521.869,936.411h-14.9a2.553,2.553,0,0,0-2.55,2.55v13.708a2.553,2.553,0,0,0,2.55,2.55h14.9a2.553,2.553,0,0,0,2.549-2.55V938.961A2.553,2.553,0,0,0,521.869,936.411Zm-14.9,1.7h14.9a.851.851,0,0,1,.849.851v2.453h-16.6v-2.453A.851.851,0,0,1,506.968,938.11Zm14.9,15.41h-14.9a.851.851,0,0,1-.849-.851v-9.556h16.6v9.556A.851.851,0,0,1,521.869,953.52Z"/><path d="M514.418,946.786a1.15,1.15,0,1,0,1.15,1.15A1.15,1.15,0,0,0,514.418,946.786Z"/><path d="M510.275,946.786a1.15,1.15,0,1,0,1.15,1.15A1.15,1.15,0,0,0,510.275,946.786Z"/><path d="M518.562,946.786a1.15,1.15,0,1,0,1.15,1.15A1.15,1.15,0,0,0,518.562,946.786Z"/></g></svg>