<svg id="Component_157_1" data-name="Component 157 – 1" xmlns="http://www.w3.org/2000/svg" width="24" height="24" viewBox="0 0 24 24">
  <g id="Rectangle_1837" data-name="Rectangle 1837" fill="#fff" stroke="#707070" stroke-width="1" opacity="0">
    <rect width="24" height="24" stroke="none"/>
    <rect x="0.5" y="0.5" width="23" height="23" fill="none"/>
  </g>
  <g id="setting" transform="translate(2.571 1.714)">
    <path id="Path_5569" data-name="Path 5569" d="M11.789,20.571H8.939A1.47,1.47,0,0,1,7.5,19.415L7.136,17.81a7.874,7.874,0,0,1-1.675-.972L3.9,17.331a1.489,1.489,0,0,1-1.735-.675L.743,14.2a1.5,1.5,0,0,1,.276-1.83l1.21-1.113a8.512,8.512,0,0,1,0-1.937L1.025,8.21A1.5,1.5,0,0,1,.739,6.383L2.169,3.91A1.484,1.484,0,0,1,3.9,3.241l1.563.493a7.9,7.9,0,0,1,1.675-.972L7.5,1.155A1.47,1.47,0,0,1,8.939,0h2.851A1.47,1.47,0,0,1,13.23,1.156l.362,1.605a7.874,7.874,0,0,1,1.675.972l1.562-.493a1.487,1.487,0,0,1,1.735.675l1.421,2.458a1.5,1.5,0,0,1-.276,1.83L18.5,9.317a8.578,8.578,0,0,1,0,1.937L19.7,12.362l.005.005a1.494,1.494,0,0,1,.28,1.821l-1.43,2.473a1.485,1.485,0,0,1-1.729.669l-1.564-.494a7.9,7.9,0,0,1-1.675.972l-.362,1.606a1.468,1.468,0,0,1-1.44,1.156Zm-6.2-5.092a.647.647,0,0,1,.41.147,6.6,6.6,0,0,0,1.91,1.108.644.644,0,0,1,.4.462l.436,1.937a.2.2,0,0,0,.187.153h2.851a.2.2,0,0,0,.187-.152l.436-1.937a.642.642,0,0,1,.4-.462,6.615,6.615,0,0,0,1.91-1.108.64.64,0,0,1,.6-.117l1.887.6a.191.191,0,0,0,.227-.08l1.43-2.472a.208.208,0,0,0-.042-.248l-1.447-1.33a.639.639,0,0,1-.2-.569,7.584,7.584,0,0,0,.086-1.12,7.478,7.478,0,0,0-.086-1.12.644.644,0,0,1,.2-.569l1.45-1.334a.209.209,0,0,0,.034-.252L17.449,4.553a.2.2,0,0,0-.233-.086l-1.884.595a.64.64,0,0,1-.6-.117,6.6,6.6,0,0,0-1.91-1.108.644.644,0,0,1-.4-.462l-.436-1.937a.2.2,0,0,0-.189-.152H8.939a.2.2,0,0,0-.187.152L8.315,3.375a.643.643,0,0,1-.4.462A6.6,6.6,0,0,0,6,4.946a.643.643,0,0,1-.6.117l-1.887-.6a.192.192,0,0,0-.227.08L1.856,7.018a.209.209,0,0,0,.044.249L3.346,8.6a.639.639,0,0,1,.2.569,7.584,7.584,0,0,0-.086,1.12,7.478,7.478,0,0,0,.086,1.12.644.644,0,0,1-.2.569L1.9,13.309a.209.209,0,0,0-.034.252l1.421,2.457a.193.193,0,0,0,.233.086L5.4,15.509a.626.626,0,0,1,.194-.03Z" transform="translate(-0.548 0)" stroke="#000" stroke-width="0.15"/>
    <path id="Path_5570" data-name="Path 5570" d="M11.144,14.857a.642.642,0,0,1-.627-.787L11.8,8.5a.642.642,0,1,1,1.252.288l-1.286,5.571A.642.642,0,0,1,11.144,14.857Z" transform="translate(-1.969 -1.143)" stroke="#000" stroke-width="0.15"/>
    <path id="Path_5571" data-name="Path 5571" d="M15.143,14.143a.643.643,0,0,1-.43-1.121l1.612-1.45-1.612-1.45a.643.643,0,0,1,.861-.957l2.143,1.929a.644.644,0,0,1,0,.957l-2.143,1.929a.642.642,0,0,1-.43.165Z" transform="translate(-2.541 -1.286)" stroke="#000" stroke-width="0.15"/>
    <path id="Path_5572" data-name="Path 5572" d="M8.286,14.143a.642.642,0,0,1-.43-.165L5.713,12.05a.644.644,0,0,1,0-.957L7.855,9.165a.643.643,0,1,1,.861.957L7.1,11.571l1.612,1.45a.643.643,0,0,1-.43,1.121Z" transform="translate(-1.255 -1.286)" stroke="#000" stroke-width="0.15"/>
  </g>
</svg>
