<svg xmlns="http://www.w3.org/2000/svg" width="24" height="24" viewBox="0 0 24 24"><g transform="translate(-583.871 -374.191)"><path d="M603.321,377.383h-1.6v-.342a.85.85,0,0,0-1.7,0v.342h-8.293v-.342a.85.85,0,0,0-1.7,0v.342h-1.6a2.553,2.553,0,0,0-2.55,2.55v13.708a2.553,2.553,0,0,0,2.55,2.55h14.9a2.553,2.553,0,0,0,2.55-2.55V379.933A2.553,2.553,0,0,0,603.321,377.383Zm-14.9,1.7h1.6v.63a.85.85,0,0,0,1.7,0v-.63h8.293v.63a.85.85,0,0,0,1.7,0v-.63h1.6a.851.851,0,0,1,.85.85v2.453h-16.6v-2.453A.851.851,0,0,1,588.421,379.083Zm14.9,15.408h-14.9a.851.851,0,0,1-.85-.85v-9.555h16.6v9.555A.851.851,0,0,1,603.321,394.491Z"/><path d="M1,0A1,1,0,1,1,0,1,1,1,0,0,1,1,0Z" transform="translate(592.671 386.255)"/><path d="M1,0A1,1,0,1,1,0,1,1,1,0,0,1,1,0Z" transform="translate(597.171 386.255)"/><path d="M1,0A1,1,0,1,1,0,1,1,1,0,0,1,1,0Z" transform="translate(592.671 390.181)"/><path d="M1,0A1,1,0,1,1,0,1,1,1,0,0,1,1,0Z" transform="translate(597.171 390.181)"/></g></svg>