<svg id="icon_UnifiedSearch" xmlns="http://www.w3.org/2000/svg" width="24" height="24" viewBox="0 0 24 24">
  <g id="Group_4388" data-name="Group 4388" transform="translate(-946.302 -1389.479)">
    <path id="Path_5466" data-name="Path 5466" d="M964.688,1407.181a.805.805,0,1,0,1.133-1.145l-3.908-3.86a6.537,6.537,0,0,0,1.452-4.106,6.637,6.637,0,1,0-2.609,5.228Zm-12.969-9.111a5.018,5.018,0,1,1,5.018,4.98A5.005,5.005,0,0,1,951.719,1398.07Z" fill-rule="evenodd"/>
    <path id="Path_5467" data-name="Path 5467" d="M953.464,1409.589a1.107,1.107,0,1,0,1.564,0A1.108,1.108,0,0,0,953.464,1409.589Z" fill-rule="evenodd"/>
    <circle id="Ellipse_169" data-name="Ellipse 169" cx="1.107" cy="1.107" r="1.107" transform="translate(949.302 1409.265)"/>
    <circle id="Ellipse_170" data-name="Ellipse 170" cx="1.107" cy="1.107" r="1.107" transform="translate(956.978 1409.265)"/>
    <path id="Path_5468" data-name="Path 5468" d="M961.224,1409.513a1.107,1.107,0,1,0,1.556.159A1.108,1.108,0,0,0,961.224,1409.513Z" fill-rule="evenodd"/>
    <path id="Path_5469" data-name="Path 5469" d="M965.874,1409.271a1.107,1.107,0,1,0,.987,1.213A1.109,1.109,0,0,0,965.874,1409.271Z" fill-rule="evenodd"/>
  </g>
</svg>
