<svg xmlns="http://www.w3.org/2000/svg" width="19.999" height="20" viewBox="0 0 19.999 20"><g transform="translate(-1311.468 -365.507)"><path d="M1318.079,377.388h-4.069a2.545,2.545,0,0,1-2.542-2.543v-6.8a2.544,2.544,0,0,1,2.542-2.542h4.069a2.544,2.544,0,0,1,2.542,2.542v6.8A2.545,2.545,0,0,1,1318.079,377.388Zm-4.069-10.181a.844.844,0,0,0-.843.842v6.8a.844.844,0,0,0,.843.843h4.069a.844.844,0,0,0,.843-.843v-6.8a.844.844,0,0,0-.843-.842Z"/><path d="M1328.925,373.038h-4.07a2.545,2.545,0,0,1-2.542-2.543v-2.446a2.544,2.544,0,0,1,2.542-2.542h4.07a2.544,2.544,0,0,1,2.542,2.542V370.5A2.545,2.545,0,0,1,1328.925,373.038Zm-4.07-5.831a.843.843,0,0,0-.842.842V370.5a.844.844,0,0,0,.842.843h4.07a.844.844,0,0,0,.843-.843v-2.446a.843.843,0,0,0-.843-.842Z"/><path d="M1318.079,385.507h-4.069a2.545,2.545,0,0,1-2.542-2.543V380.9a2.544,2.544,0,0,1,2.542-2.542h4.069a2.545,2.545,0,0,1,2.542,2.542v2.064A2.545,2.545,0,0,1,1318.079,385.507Zm-4.069-5.449a.844.844,0,0,0-.843.842v2.064a.844.844,0,0,0,.843.843h4.069a.844.844,0,0,0,.843-.843V380.9a.844.844,0,0,0-.843-.842Z"/><path d="M1328.925,385.507h-4.07a2.545,2.545,0,0,1-2.542-2.543v-6.138a2.545,2.545,0,0,1,2.542-2.542h4.07a2.545,2.545,0,0,1,2.542,2.542v6.138A2.545,2.545,0,0,1,1328.925,385.507Zm-4.07-9.523a.843.843,0,0,0-.842.842v6.138a.844.844,0,0,0,.842.843h4.07a.844.844,0,0,0,.843-.843v-6.138a.843.843,0,0,0-.843-.842Z"/></g></svg>