<svg xmlns="http://www.w3.org/2000/svg" width="24" height="24" viewBox="0 0 24 24"><g transform="translate(-1137.269 -933.815)"><path d="M1149.291,935.815a6.952,6.952,0,0,0-3.763,12.794v3.444a3.763,3.763,0,0,0,7.526,0v-3.438a6.956,6.956,0,0,0-3.763-12.8Zm0,18.3a2.066,2.066,0,0,1-2.064-2.063v-1.087h1.957a.271.271,0,0,0,.214,0h1.957v1.087A2.066,2.066,0,0,1,1149.291,954.116Zm2.51-6.734a.848.848,0,0,0-.446.748v1.137h-1.214v-4.623a2.4,2.4,0,0,0,1.554-2.242.849.849,0,1,0-1.7,0,.7.7,0,1,1-1.41,0,.85.85,0,1,0-1.7,0,2.4,2.4,0,0,0,1.554,2.242v4.623h-1.214v-1.146a.848.848,0,0,0-.444-.744,5.241,5.241,0,1,1,5.019.005Z"/><path d="M1142.99,936.669a.866.866,0,0,0-.25-.61.8.8,0,0,0-.271-.18.878.878,0,0,0-.929.18.88.88,0,0,0-.191.931,1.079,1.079,0,0,0,.191.279.808.808,0,0,0,.269.181.986.986,0,0,0,.33.069.84.84,0,0,0,.6-.25A.861.861,0,0,0,1142.99,936.669Z"/><path d="M1140.74,938.54a.913.913,0,0,0-.651,0,1.006,1.006,0,0,0-.27.189.829.829,0,0,0-.25.6.864.864,0,0,0,.06.319.941.941,0,0,0,.19.28.845.845,0,0,0,1.2,0,.752.752,0,0,0,.181-.28.708.708,0,0,0,.069-.319.825.825,0,0,0-.25-.6A.912.912,0,0,0,1140.74,938.54Z"/><path d="M1155.82,936.059a.857.857,0,0,0,0,1.21.839.839,0,0,0,.6.25.88.88,0,0,0,.321-.069.758.758,0,0,0,.279-.181.849.849,0,0,0,.181-.279.729.729,0,0,0,.069-.321.862.862,0,0,0-.25-.61A.893.893,0,0,0,1155.82,936.059Z"/><path d="M1158.741,938.729a.872.872,0,0,0-1.2,0,.822.822,0,0,0-.251.6.85.85,0,1,0,1.451-.6Z"/></g></svg>