<svg xmlns="http://www.w3.org/2000/svg" width="24" height="24" viewBox="0 0 24 24"><g transform="translate(-1219.333 -1214.636)"><path d="M1240.483,1218.136h-18.3a.848.848,0,0,0-.849.849v15.3a.848.848,0,0,0,.849.85h18.3a.849.849,0,0,0,.85-.85v-15.3A.849.849,0,0,0,1240.483,1218.136Zm-.85,15.3h-16.6v-13.6h16.6Z"/><path d="M1230.609,1230.67a.984.984,0,0,0,.141.011.851.851,0,0,0,.838-.711l1.063-6.391a.85.85,0,1,0-1.677-.279l-1.064,6.391A.852.852,0,0,0,1230.609,1230.67Z"/><path d="M1227.354,1229.5a.85.85,0,1,0,1.182-1.223l-1.615-1.562,1.618-1.578a.85.85,0,1,0-1.188-1.217l-2.244,2.19a.851.851,0,0,0,0,1.22Z"/><path d="M1234.109,1229.476a.851.851,0,0,0,1.2.021l2.244-2.17a.851.851,0,0,0,0-1.22l-2.244-2.19a.85.85,0,0,0-1.188,1.217l1.618,1.578-1.615,1.562A.849.849,0,0,0,1234.109,1229.476Z"/></g></svg>