<svg xmlns="http://www.w3.org/2000/svg" width="24" height="24" viewBox="0 0 24 24"><path d="M1325.659,755.62h-1.316v-3.19a.85.85,0,0,0-.85-.849H1318.7v-2.573h1.712a2.288,2.288,0,0,0,2.285-2.285V744.6a2.287,2.287,0,0,0-2.285-2.285h-5.124a2.287,2.287,0,0,0-2.285,2.285v2.124a2.288,2.288,0,0,0,2.285,2.285H1317v2.573h-4.791a.85.85,0,0,0-.85.849v3.19h-1.317a2.195,2.195,0,0,0-2.192,2.193v2.309a2.194,2.194,0,0,0,2.192,2.192h4.31a2.195,2.195,0,0,0,2.193-2.192v-2.309a2.2,2.2,0,0,0-2.193-2.193h-1.293v-2.34h9.582v2.34h-1.294a2.195,2.195,0,0,0-2.192,2.193v2.309a2.194,2.194,0,0,0,2.192,2.192h4.31a2.195,2.195,0,0,0,2.193-2.192v-2.309A2.2,2.2,0,0,0,1325.659,755.62Zm-11.305,1.7a.494.494,0,0,1,.493.494v2.309a.493.493,0,0,1-.493.492h-4.31a.492.492,0,0,1-.492-.492v-2.309a.494.494,0,0,1,.492-.494Zm.936-10.01a.586.586,0,0,1-.585-.586V744.6a.586.586,0,0,1,.585-.586h5.124a.586.586,0,0,1,.585.586v2.124a.586.586,0,0,1-.585.586Zm10.862,12.813a.492.492,0,0,1-.493.492h-4.31a.492.492,0,0,1-.492-.492v-2.309a.494.494,0,0,1,.492-.494h4.31a.494.494,0,0,1,.493.494Z" transform="translate(-1305.852 -740.314)"/></svg>