<svg xmlns="http://www.w3.org/2000/svg" width="24" height="24" viewBox="0 0 24 24"><defs><style>.a{opacity:0;}</style></defs><rect class="a" width="24" height="24"/><g transform="translate(-34.308 -1576.14)"><path d="M48.627,1596.44H44.864v-9.535h2.888v1a.851.851,0,0,0,1.7,0v-1h2.774a.841.841,0,0,0,1.581,0h1.65a.849.849,0,0,0,.524-1.518c-2.425-1.9-8.767-6.866-8.975-7.035a.846.846,0,0,0-1.073-.036l-9.29,7.063a.85.85,0,0,0,.514,1.526h1.417v9.536H37.158a.85.85,0,1,0,0,1.7H48.627a.85.85,0,1,0,0-1.7Zm-2.188-16.374c1.181.928,4.054,3.179,6.556,5.138l-6.687,0-6.628,0Zm-6.164,6.838h2.889v9.535H40.275Z"/><path d="M52.609,1591.64H50.965l1.54-1.552a.85.85,0,1,0-1.207-1.2l-2.992,3.014h0v0l0,0a.8.8,0,0,0-.076.116.889.889,0,0,0-.108.163.861.861,0,0,0-.031.159.816.816,0,0,0-.031.161.86.86,0,0,0,.032.165.792.792,0,0,0,.031.154.8.8,0,0,0,.109.166.858.858,0,0,0,.075.113l0,0h0l2.993,3.014a.85.85,0,1,0,1.206-1.2l-1.581-1.592h1.685a2,2,0,0,1,2,2v1.952a.85.85,0,0,0,1.7,0v-1.952A3.7,3.7,0,0,0,52.609,1591.64Z"/></g></svg>