<svg xmlns="http://www.w3.org/2000/svg" width="24" height="24" viewBox="0 0 24 24"><g transform="translate(-948.797 -1214.734)"><path d="M958.786,1229.63a.948.948,0,0,0,1.329.151l2.119-1.687a.93.93,0,0,0,.344-.714.844.844,0,0,0,.031-.157l-.019-5.328a.946.946,0,0,0-.945-.942h0a.946.946,0,0,0-.942.949l.018,4.982-1.78,1.417A.948.948,0,0,0,958.786,1229.63Z"/><path d="M960.862,1216.734a10.032,10.032,0,0,0-5.375,1.587l-3.442-.15a.979.979,0,0,0-.985.9.944.944,0,0,0,.9.986l2.957.129-.285,2.966a.947.947,0,0,0,.85,1.033l.092,0a.947.947,0,0,0,.941-.854l.35-3.643a8.2,8.2,0,1,1-1.782,12.908c-.018-.023-.026-.051-.046-.072a.724.724,0,0,0-.141-.11c-.022-.015-.043-.022-.064-.034a.932.932,0,0,0-1.234.031.944.944,0,0,0-.041,1.336,9.97,9.97,0,0,0,7.332,3.172,10.1,10.1,0,0,0-.03-20.191Z"/><path d="M952.87,1223.24a.947.947,0,0,0,.83-.48.945.945,0,1,0-1.65-.92.946.946,0,0,0,.36,1.28A.881.881,0,0,0,952.87,1223.24Z"/><path d="M951.95,1229.02a.944.944,0,0,0,.33,1.83,1.13,1.13,0,0,0,.32-.05.952.952,0,0,0,.56-1.22A.938.938,0,0,0,951.95,1229.02Z"/><path d="M951.75,1226.979a.941.941,0,0,0,.069-1.879.92.92,0,0,0-1.009.86h-.01a.95.95,0,0,0,.87,1.019Z"/></g></svg>