<svg xmlns="http://www.w3.org/2000/svg" width="20" height="19.999" viewBox="0 0 20 19.999"><g transform="translate(-306.754 -1306.41)"><path d="M326.754,1316.41a10.014,10.014,0,0,0-11.144-9.936c-.188.021-.56.079-.581.083l-.249.047a.85.85,0,0,0,.331,1.668l.205-.039s.321-.052.484-.069a8.25,8.25,0,0,1,9.141,9.551,6.187,6.187,0,0,0-5.024.478,1.461,1.461,0,0,0-.726,1.27v3.791a1.467,1.467,0,0,0,.361.968,8.29,8.29,0,0,1-8.984-13.33l-.13,1.9a.85.85,0,0,0,.79.906.551.551,0,0,0,.059,0,.85.85,0,0,0,.847-.791l.271-3.961a.824.824,0,0,0-.031-.239.943.943,0,0,0-.013-.1.814.814,0,0,0-.087-.151.847.847,0,0,0-.076-.131.8.8,0,0,0-.126-.1.924.924,0,0,0-.131-.1.945.945,0,0,0-.134-.037.828.828,0,0,0-.19-.052l-3.953-.279a.85.85,0,0,0-.12,1.7l1.921.135a9.98,9.98,0,0,0,7.289,16.818,9.881,9.881,0,0,0,4.265-.968c.133.084.257.186.4.259.377.219.725.4.981.517l.252.117a.85.85,0,0,0,.35.075.867.867,0,0,0,.356-.077l.244-.117,0,0c.252-.123.6-.3.937-.5a6.7,6.7,0,0,0,1.857-1.485,1.467,1.467,0,0,0,.358-.968v-3.8a1.471,1.471,0,0,0-.265-.831A10.033,10.033,0,0,0,326.754,1316.41Zm-1.7,6.763a5.05,5.05,0,0,1-1.354,1.058c-.26.154-.506.285-.706.387-.207-.1-.463-.236-.755-.405a4.982,4.982,0,0,1-1.348-1.043V1319.6a4.5,4.5,0,0,1,4.163-.007Z"/><path d="M314.433,1319.266c.01.011.025.014.035.024l.008.011a.851.851,0,0,0,1.2,0l4.609-4.585a.85.85,0,1,0-1.2-1.2l-4,3.984-.653-.67a.85.85,0,1,0-1.218,1.185Z"/></g><g transform="translate(-306.754 -1306.41)"><path d="M326.754,1316.41a10.014,10.014,0,0,0-11.144-9.936c-.188.021-.56.079-.581.083l-.249.047a.85.85,0,0,0,.331,1.668l.205-.039s.321-.052.484-.069a8.25,8.25,0,0,1,9.141,9.551,6.187,6.187,0,0,0-5.024.478,1.461,1.461,0,0,0-.726,1.27v3.791a1.467,1.467,0,0,0,.361.968,8.29,8.29,0,0,1-8.984-13.33l-.13,1.9a.85.85,0,0,0,.79.906.551.551,0,0,0,.059,0,.85.85,0,0,0,.847-.791l.271-3.961a.824.824,0,0,0-.031-.239.943.943,0,0,0-.013-.1.814.814,0,0,0-.087-.151.847.847,0,0,0-.076-.131.8.8,0,0,0-.126-.1.924.924,0,0,0-.131-.1.945.945,0,0,0-.134-.037.828.828,0,0,0-.19-.052l-3.953-.279a.85.85,0,0,0-.12,1.7l1.921.135a9.98,9.98,0,0,0,7.289,16.818,9.881,9.881,0,0,0,4.265-.968c.133.084.257.186.4.259.377.219.725.4.981.517l.252.117a.85.85,0,0,0,.35.075.867.867,0,0,0,.356-.077l.244-.117,0,0c.252-.123.6-.3.937-.5a6.7,6.7,0,0,0,1.857-1.485,1.467,1.467,0,0,0,.358-.968v-3.8a1.471,1.471,0,0,0-.265-.831A10.033,10.033,0,0,0,326.754,1316.41Zm-1.7,6.763a5.05,5.05,0,0,1-1.354,1.058c-.26.154-.506.285-.706.387-.207-.1-.463-.236-.755-.405a4.982,4.982,0,0,1-1.348-1.043V1319.6a4.5,4.5,0,0,1,4.163-.007Z"/><path d="M314.433,1319.266c.01.011.025.014.035.024l.008.011a.851.851,0,0,0,1.2,0l4.609-4.585a.85.85,0,1,0-1.2-1.2l-4,3.984-.653-.67a.85.85,0,1,0-1.218,1.185Z"/></g></svg>