<svg id="icon_Account360" xmlns="http://www.w3.org/2000/svg" width="24" height="24" viewBox="0 0 24 24">
  <g id="Group_4385" data-name="Group 4385" transform="translate(-672.821 -1389.479)">
    <path id="Path_5436" data-name="Path 5436" d="M694.8,1405.982a.814.814,0,0,0-.837-.848l-.014,0-4.69-.017a.833.833,0,0,0-.857.852.855.855,0,0,0,.851.857l3.534.012c-.664.826-2.858,2.936-7.954,2.936-6.214,0-8.342-3.139-8.44-3.292a.855.855,0,0,0-1.445.913c.1.167,2.648,4.087,9.885,4.087,4.317,0,6.876-1.4,8.27-2.563l.006,1.712a.854.854,0,0,0,.854.851h0a.854.854,0,0,0,.851-.857Z"/>
    <path id="Path_5437" data-name="Path 5437" d="M687.18,1398.975l-3.96,3.941-.831-.849a.85.85,0,1,0-1.214,1.189l1.4,1.429c.01.01.024.013.034.023l.007.01a.85.85,0,0,0,1.2,0l4.564-4.541a.85.85,0,0,0-1.2-1.205Z"/>
    <path id="Path_5438" data-name="Path 5438" d="M675.675,1404.2a.849.849,0,0,0,.85-.85v-3.04l.972-.2a.848.848,0,0,0,.648-.593,6.9,6.9,0,0,1,.569-1.375.849.849,0,0,0-.038-.88l-.55-.824,1.658-1.658.824.55a.848.848,0,0,0,.879.038,6.909,6.909,0,0,1,1.374-.569.849.849,0,0,0,.594-.648l.2-.973h2.343l.2.973a.849.849,0,0,0,.594.648,6.96,6.96,0,0,1,1.373.569.85.85,0,0,0,.88-.038l.823-.55,1.658,1.658-.55.824a.852.852,0,0,0-.038.88,6.9,6.9,0,0,1,.569,1.375.848.848,0,0,0,.648.593l.973.2v2.219a.849.849,0,0,0,1.7,0v-2.916a.848.848,0,0,0-.682-.833l-1.169-.235c-.091-.254-.2-.5-.31-.749l.661-.99a.851.851,0,0,0-.107-1.073l-2.642-2.643a.846.846,0,0,0-1.072-.106l-.991.661q-.366-.172-.747-.311l-.235-1.168a.847.847,0,0,0-.832-.683h-3.737a.847.847,0,0,0-.832.683l-.235,1.168c-.254.092-.5.2-.748.311l-.991-.661a.848.848,0,0,0-1.072.106l-2.642,2.643a.851.851,0,0,0-.107,1.073l.661.99q-.172.367-.31.749l-1.169.235a.848.848,0,0,0-.682.833v3.737A.849.849,0,0,0,675.675,1404.2Z"/>
  </g>
</svg>
