<svg xmlns="http://www.w3.org/2000/svg" width="24" height="24" viewBox="0 0 24 24"><g transform="translate(-36.164 -1109.005)"><path d="M1.15,0A1.15,1.15,0,1,1,0,1.15,1.15,1.15,0,0,1,1.15,0Z" transform="translate(47.014 1119.955)"/><path d="M1.15,0A1.15,1.15,0,1,1,0,1.15,1.15,1.15,0,0,1,1.15,0Z" transform="translate(42.871 1119.955)"/><path d="M1.15,0A1.15,1.15,0,1,1,0,1.15,1.15,1.15,0,0,1,1.15,0Z" transform="translate(51.158 1119.955)"/><path d="M55.309,1125.7H41.02a2.858,2.858,0,0,1-2.856-2.855v-3.488a2.858,2.858,0,0,1,2.856-2.856H55.309a2.859,2.859,0,0,1,2.856,2.856v3.488A2.859,2.859,0,0,1,55.309,1125.7Zm-14.289-7.5a1.158,1.158,0,0,0-1.156,1.157v3.488a1.157,1.157,0,0,0,1.156,1.156H55.309a1.156,1.156,0,0,0,1.155-1.156v-3.488a1.157,1.157,0,0,0-1.155-1.157Z"/></g></svg>