<svg xmlns="http://www.w3.org/2000/svg" width="24" height="24" viewBox="0 0 24 24"><defs><style>.a,.b{fill:#fff;}.a{opacity:0;}</style></defs><rect class="a" width="24" height="24"/><path class="b" d="M15.44,1.07.56,1.091A.548.548,0,0,1,0,.556.548.548,0,0,1,.56.02L15.44,0A.548.548,0,0,1,16,.535.548.548,0,0,1,15.44,1.07Z" transform="translate(6.771 6) rotate(45)"/><path class="b" d="M15.44.02.56,0A.548.548,0,0,0,0,.535a.548.548,0,0,0,.56.535l14.881.02A.548.548,0,0,0,16,.556.548.548,0,0,0,15.44.02Z" transform="translate(18.085 6.771) rotate(135)"/></svg>