<svg xmlns="http://www.w3.org/2000/svg" width="24" height="24" viewBox="0 0 24 24"><g transform="translate(-216.766 -1480.133)"><path d="M237.916,1497.777h-3.04a2.544,2.544,0,0,0,2.395-2.533v-7.962a2.542,2.542,0,0,0-2.53-2.549h-11.95a2.543,2.543,0,0,0-2.531,2.549v7.962a2.545,2.545,0,0,0,2.4,2.533h-3.04a.85.85,0,0,0,0,1.7h18.3a.85.85,0,0,0,0-1.7Zm-15.956-2.533v-7.962a.842.842,0,0,1,.831-.85h11.95a.841.841,0,0,1,.83.85v7.962a.85.85,0,0,1-.849.85H222.81A.851.851,0,0,1,221.96,1495.244Z"/><path d="M226.926,1493.51c.008.008.019.011.027.018l0,.008a.852.852,0,0,0,1.2,0l3.512-3.494a.85.85,0,0,0-1.2-1.205l-2.908,2.892-.5-.511a.85.85,0,0,0-1.215,1.189Z"/></g></svg>