<svg xmlns="http://www.w3.org/2000/svg" width="20" height="20" viewBox="0 0 20 20"><defs><style>.a{fill:#010101;}</style></defs><path class="a" d="M7.708,6.667H1.458A1.458,1.458,0,0,1,0,5.208V1.458A1.458,1.458,0,0,1,1.458,0h6.25A1.458,1.458,0,0,1,9.167,1.458v3.75A1.458,1.458,0,0,1,7.708,6.667ZM1.458,1.25a.208.208,0,0,0-.208.208v3.75a.208.208,0,0,0,.208.208h6.25a.208.208,0,0,0,.208-.208V1.458a.208.208,0,0,0-.208-.208Z" transform="translate(0)"/><path class="a" d="M7.708,21.667H1.458A1.458,1.458,0,0,1,0,20.208v-8.75A1.458,1.458,0,0,1,1.458,10h6.25a1.458,1.458,0,0,1,1.458,1.458v8.75a1.458,1.458,0,0,1-1.458,1.458ZM1.458,11.25a.208.208,0,0,0-.208.208v8.75a.208.208,0,0,0,.208.208h6.25a.208.208,0,0,0,.208-.208v-8.75a.208.208,0,0,0-.208-.208Z" transform="translate(0 -1.667)"/><path class="a" d="M20.708,22.667h-6.25A1.458,1.458,0,0,1,13,21.208v-3.75A1.458,1.458,0,0,1,14.458,16h6.25a1.458,1.458,0,0,1,1.458,1.458v3.75a1.458,1.458,0,0,1-1.458,1.458Zm-6.25-5.417a.208.208,0,0,0-.208.208v3.75a.208.208,0,0,0,.208.208h6.25a.208.208,0,0,0,.208-.208v-3.75a.208.208,0,0,0-.208-.208Z" transform="translate(-2.167 -2.667)"/><path class="a" d="M20.708,11.667h-6.25A1.458,1.458,0,0,1,13,10.208V1.458A1.458,1.458,0,0,1,14.458,0h6.25a1.458,1.458,0,0,1,1.458,1.458v8.75a1.458,1.458,0,0,1-1.458,1.458ZM14.458,1.25a.208.208,0,0,0-.208.208v8.75a.208.208,0,0,0,.208.208h6.25a.208.208,0,0,0,.208-.208V1.458a.208.208,0,0,0-.208-.208Z" transform="translate(-2.167 0)"/></svg>