<svg xmlns="http://www.w3.org/2000/svg" width="20" height="20" viewBox="0 0 20 20"><defs><style>.a{fill:#231f20;}</style></defs><g transform="translate(10.811 11.698)"><g transform="translate(-10.811 -11.698)"><path class="a" d="M11.8,5.37c-3.422,0-6.217,2.358-6.217,5.216a4.954,4.954,0,0,0,2.1,3.938,3.456,3.456,0,0,1,.869,2.608.286.286,0,0,0,.112.243.43.43,0,0,0,.273.1h5.7a.37.37,0,0,0,.262-.1.3.3,0,0,0,.112-.243,3.546,3.546,0,0,1,.879-2.608l.065-.052a4.967,4.967,0,0,0,2.056-3.886C18.014,7.728,15.219,5.37,11.8,5.37Zm3.58,8.69s-.065.052-.065.078a3.926,3.926,0,0,0-1.056,2.7H9.319A3.991,3.991,0,0,0,8.2,14.06a4.328,4.328,0,0,1-1.872-3.474A5.087,5.087,0,0,1,11.786,6a5.074,5.074,0,0,1,5.4,4.59,4.32,4.32,0,0,1-1.818,3.469Z" transform="translate(-1.773 -1.182)"/><path class="a" d="M12.173,6.909a.353.353,0,0,0-.373.308.362.362,0,0,0,.373.308,3.672,3.672,0,0,1,3.955,3.283.379.379,0,0,0,.736,0A3.962,3.962,0,0,0,15.4,7.964a4.715,4.715,0,0,0-3.231-1.055Z" transform="translate(-2.117 -1.258)"/><path class="a" d="M14.295,19.73H9.467a.761.761,0,1,0,0,1.516h4.809a.856.856,0,0,0,.778-.353.707.707,0,0,0,.01-.8.853.853,0,0,0-.77-.368Zm0,.892H9.467a.167.167,0,0,1-.173-.15c0-.092.064-.142.173-.142h4.809a.173.173,0,0,1,.118.038.145.145,0,0,1,.054.1.135.135,0,0,1-.042.106.162.162,0,0,1-.113.044Z" transform="translate(-1.879 -3.074)"/><path class="a" d="M13.648,21.919H10.257a.761.761,0,1,0,0,1.516h3.391a.857.857,0,0,0,.784-.357.708.708,0,0,0,0-.8A.857.857,0,0,0,13.648,21.919Zm0,.883H10.257a.173.173,0,0,1-.118-.038.145.145,0,0,1-.054-.1c0-.092.064-.142.173-.142h3.391a.142.142,0,1,1,0,.283Z" transform="translate(-1.951 -3.439)"/><path class="a" d="M12.173,3.04a.365.365,0,0,0,.253-.084.306.306,0,0,0,.111-.225V.632a.379.379,0,0,0-.736,0v2.1a.362.362,0,0,0,.373.308Z" transform="translate(-2.167 -0.344)"/><path class="a" d="M18.8,2.178a.386.386,0,0,0-.5.075L16.883,3.986a.266.266,0,0,0-.068.237.287.287,0,0,0,.159.2.418.418,0,0,0,.2.05.356.356,0,0,0,.3-.142l1.391-1.733a.253.253,0,0,0,.079-.223A.267.267,0,0,0,18.8,2.178Z" transform="translate(-2.52 -0.64)"/><path class="a" d="M7.177,4.374a.448.448,0,0,0,.2-.05.3.3,0,0,0,.159-.194.28.28,0,0,0-.05-.239L6.131,2.141a.414.414,0,0,0-.518-.092.3.3,0,0,0-.159.194.28.28,0,0,0,.05.239l1.355,1.75A.4.4,0,0,0,7.177,4.374Z" transform="translate(-1.689 -0.62)"/><path class="a" d="M4.181,6.952,1.945,5.993a.432.432,0,0,0-.5.125.256.256,0,0,0-.036.244.289.289,0,0,0,.191.173l2.236.958a.575.575,0,0,0,.173,0,.383.383,0,0,0,.327-.158.3.3,0,0,0-.155-.383Z" transform="translate(-1.392 -1.149)"/><path class="a" d="M22.653,6.083a.425.425,0,0,0-.5-.092l-2.173.958a.311.311,0,0,0-.177.177.278.278,0,0,0,.022.239.364.364,0,0,0,.327.158.525.525,0,0,0,.173,0l2.218-.991a.305.305,0,0,0,.17-.2.281.281,0,0,0-.06-.248Z" transform="translate(-2.722 -1.147)"/></g></g></svg>