<svg id="Layer_1" data-name="Layer 1" xmlns="http://www.w3.org/2000/svg" viewBox="0 0 21.55 23.41"><defs><style>.cls-1{fill:#231f20;}</style></defs><path class="cls-1" d="M12.23,5.37c-3.66,0-6.65,2.71-6.65,6a5.83,5.83,0,0,0,2.25,4.53,4.17,4.17,0,0,1,.93,3,.34.34,0,0,0,.12.28.44.44,0,0,0,.29.11h6.1a.38.38,0,0,0,.28-.11.35.35,0,0,0,.12-.28s-.12-2.06.94-3l.07-.06a5.85,5.85,0,0,0,2.2-4.47C18.88,8.08,15.89,5.37,12.23,5.37Zm3.83,10s-.07.06-.07.09a4.71,4.71,0,0,0-1.13,3.11H9.58a4.78,4.78,0,0,0-1.2-3.2,5.09,5.09,0,0,1-2-4,5.58,5.58,0,0,1,5.84-5.28A5.57,5.57,0,0,1,18,11.37,5.09,5.09,0,0,1,16.06,15.36Z" transform="translate(-1.43 -0.33)"/><path class="cls-1" d="M12.21,6.91a.4.4,0,0,0-.41.37.41.41,0,0,0,.41.37,4.16,4.16,0,0,1,4.35,3.94.41.41,0,0,0,.81,0A4.91,4.91,0,0,0,12.21,6.91Z" transform="translate(-1.43 -0.33)"/><path class="cls-1" d="M14.86,19.73H9.55a.91.91,0,1,0,0,1.82h5.29a1,1,0,0,0,1-.91A1,1,0,0,0,14.86,19.73Zm0,1.07H9.55a.19.19,0,0,1-.19-.18c0-.11.07-.17.19-.17h5.29a.18.18,0,0,1,.19.17A.17.17,0,0,1,14.86,20.8Z" transform="translate(-1.43 -0.33)"/><path class="cls-1" d="M14.07,21.92H10.34a.91.91,0,1,0,0,1.82h3.73a1,1,0,0,0,1-.91A1,1,0,0,0,14.07,21.92Zm0,1.06H10.34a.18.18,0,0,1-.19-.17c0-.11.07-.17.19-.17h3.73a.17.17,0,1,1,0,.34Z" transform="translate(-1.43 -0.33)"/><path class="cls-1" d="M12.21,3.58a.38.38,0,0,0,.4-.37V.69a.41.41,0,0,0-.81,0V3.21A.41.41,0,0,0,12.21,3.58Z" transform="translate(-1.43 -0.33)"/><path class="cls-1" d="M19,2.19a.4.4,0,0,0-.55.09L16.89,4.36a.34.34,0,0,0,.1.52.43.43,0,0,0,.22.06.38.38,0,0,0,.33-.17l1.53-2.08A.32.32,0,0,0,19,2.19Z" transform="translate(-1.43 -0.33)"/><path class="cls-1" d="M7.35,4.85a.46.46,0,0,0,.22-.06.36.36,0,0,0,.12-.52L6.2,2.17a.43.43,0,0,0-.57-.11.36.36,0,0,0-.12.52L7,4.68A.42.42,0,0,0,7.35,4.85Z" transform="translate(-1.43 -0.33)"/><path class="cls-1" d="M4.46,7.15,2,6a.45.45,0,0,0-.55.15.33.33,0,0,0,.17.5L4.08,7.8a.58.58,0,0,0,.19,0,.41.41,0,0,0,.36-.19A.37.37,0,0,0,4.46,7.15Z" transform="translate(-1.43 -0.33)"/><path class="cls-1" d="M22.94,6.11A.44.44,0,0,0,22.39,6L20,7.15a.36.36,0,0,0-.17.5.39.39,0,0,0,.36.19.53.53,0,0,0,.19,0l2.44-1.19A.36.36,0,0,0,22.94,6.11Z" transform="translate(-1.43 -0.33)"/></svg>