<svg width="80" height="80" viewBox="0 0 80 80" fill="none" xmlns="http://www.w3.org/2000/svg">
<path d="M49.3702 70.0858H29.8107C28.3108 70.0858 27.0986 68.8736 27.0986 67.3737C27.0986 65.8739 28.3108 64.6617 29.8107 64.6617H49.3702C50.87 64.6617 52.0822 65.8739 52.0822 67.3737C52.0822 68.8633 50.8598 70.0858 49.3702 70.0858Z" fill="url(#paint0_linear)"/>
<path d="M43.9454 77.2973H35.2238C33.7239 77.2973 32.5117 76.0851 32.5117 74.5853C32.5117 73.0854 33.7239 71.8732 35.2238 71.8732H43.9454C45.4452 71.8732 46.6574 73.0854 46.6574 74.5853C46.6574 76.0748 45.4452 77.2973 43.9454 77.2973Z" fill="url(#paint1_linear)"/>
<path d="M66.8439 27.5253C67.4705 37.3359 62.9094 46.1192 55.6464 51.4097C53.9925 52.6116 52.996 54.5121 52.996 56.5461C52.996 60.0389 50.171 62.8639 46.6782 62.8639H32.512C29.0192 62.8639 26.1941 60.0389 26.1941 56.5461C26.1941 54.5121 25.1977 52.6116 23.554 51.42C16.7226 46.4582 12.2744 38.4043 12.2744 29.3128C12.2744 13.5748 25.588 0.949409 41.5521 2.06915C55.0712 3.01425 65.9809 14.0062 66.8439 27.5253Z" fill="url(#paint2_linear)"/>
<path d="M34.875 62.864V38.8255L26.3896 30.3401" stroke="url(#paint3_linear)" stroke-width="4" stroke-miterlimit="10"/>
<path d="M44.2959 62.864V38.8255L52.7813 30.3401" stroke="url(#paint4_linear)" stroke-width="4" stroke-miterlimit="10"/>
<defs>
<linearGradient id="paint0_linear" x1="27.092" y1="67.3672" x2="52.0793" y2="67.3672" gradientUnits="userSpaceOnUse">
<stop stop-color="#FCD746"/>
<stop offset="0.574" stop-color="#F5B82C"/>
<stop offset="0.7502" stop-color="#F2AD23"/>
</linearGradient>
<linearGradient id="paint1_linear" x1="32.5128" y1="74.5805" x2="46.657" y2="74.5805" gradientUnits="userSpaceOnUse">
<stop stop-color="#FCD746"/>
<stop offset="0.574" stop-color="#F5B82C"/>
<stop offset="0.7502" stop-color="#F2AD23"/>
</linearGradient>
<linearGradient id="paint2_linear" x1="18.9154" y1="18.9231" x2="62.4362" y2="47.9006" gradientUnits="userSpaceOnUse">
<stop stop-color="#FCD746"/>
<stop offset="0.574" stop-color="#F5B82C"/>
<stop offset="0.7502" stop-color="#F2AD23"/>
</linearGradient>
<linearGradient id="paint3_linear" x1="24.935" y1="45.8772" x2="36.9255" y2="45.8772" gradientUnits="userSpaceOnUse">
<stop stop-color="#F7F4C9"/>
<stop offset="0.4482" stop-color="#FBECA4"/>
<stop offset="0.7502" stop-color="#FEE786"/>
</linearGradient>
<linearGradient id="paint4_linear" x1="54.2366" y1="45.8772" x2="42.2462" y2="45.8772" gradientUnits="userSpaceOnUse">
<stop stop-color="#F7F4C9"/>
<stop offset="0.4482" stop-color="#FBECA4"/>
<stop offset="0.7502" stop-color="#FEE786"/>
</linearGradient>
</defs>
</svg>
