<svg xmlns="http://www.w3.org/2000/svg" width="20" height="20" viewBox="0 0 20 20"><defs><style>.a{fill:#010101;}</style></defs><path class="a" d="M16.248,0H12.19l2.025,4.138Z" transform="translate(-1.559)"/><path class="a" d="M10.157,0H6.09L8.123,4.138Z" transform="translate(-0.779)"/><path class="a" d="M5.075.37,3.05,4.508H7.108Z" transform="translate(-0.508 -0.024)"/><path class="a" d="M13.2,4.508,11.173.37,9.14,4.508Z" transform="translate(-1.169 -0.024)"/><path class="a" d="M19.3,4.508,17.263.37,15.23,4.508Z" transform="translate(-1.83 -0.024)"/><path class="a" d="M17.263,9.678,19.3,5.54H15.23Z" transform="translate(-1.83 -0.364)"/><path class="a" d="M7.108,5.54H3.05L5.075,9.678Z" transform="translate(-0.508 -0.364)"/><path class="a" d="M2.033,5.91,0,10.048H4.058Z" transform="translate(0 -0.389)"/><path class="a" d="M22.338,10.048,20.3,5.91,18.28,10.048Z" transform="translate(-2.338 -0.389)"/><path class="a" d="M20.3,15.208l2.033-4.138H18.28Z" transform="translate(-2.338 -0.729)"/><path class="a" d="M0,11.07l2.033,4.138L4.058,11.07Z" transform="translate(0 -0.729)"/><path class="a" d="M3.05,15.578H7.108L5.075,11.44Z" transform="translate(-0.508 -0.753)"/><path class="a" d="M15.23,15.578H19.3L17.263,11.44Z" transform="translate(-1.83 -0.753)"/><path class="a" d="M17.263,20.748,19.3,16.61H15.23Z" transform="translate(-1.83 -1.093)"/><path class="a" d="M9.14,16.61l2.033,4.138L13.2,16.61Z" transform="translate(-1.169 -1.093)"/><path class="a" d="M3.05,16.61l2.025,4.138L7.108,16.61Z" transform="translate(-0.508 -1.093)"/><path class="a" d="M6.09,21.118h4.067L8.123,16.98Z" transform="translate(-0.779 -1.118)"/><path class="a" d="M12.19,21.118h4.058L14.215,16.98Z" transform="translate(-1.559 -1.118)"/><path class="a" d="M7.774,8.237l.467.934a.111.111,0,0,0,.075.065l.475.112L10.3,11.058l.167-.2L8.9,9.134h-.05l-.425-.121-.4-.794.342-.392.7.458.108.476a.261.261,0,0,0,0,.065L10.7,10.554l.167-.2L9.4,8.63l-.117-.5a.142.142,0,0,0-.05-.084L8.4,7.518a.107.107,0,0,0-.142,0l-.475.532A.153.153,0,0,0,7.774,8.237Z" transform="translate(-1.374 -1.707)"/><path class="a" d="M13.1,10.3,10.507,13.22l-.167-.187,2.592-2.924Z" transform="translate(-1.719 -1.88)"/><path class="a" d="M9.74,13.545a.123.123,0,0,0-.1-.065H8.906a.123.123,0,0,0-.1.065l-.35.663a.144.144,0,0,0,0,.14l.35.663a.123.123,0,0,0,.1.065h.708a.123.123,0,0,0,.1-.065l.35-.663a.144.144,0,0,0,0-.14Zm-.167,1.261H9l-.283-.523L9,13.751h.575l.283.532Z" transform="translate(-1.488 -2.102)"/><path class="a" d="M13.4,10.7A1.519,1.519,0,0,0,14.822,9.11a1.58,1.58,0,0,0-.05-.392.122.122,0,0,0-.055-.088.1.1,0,0,0-.1-.005.067.067,0,0,0-.05,0l-.733.831-.583-.224-.192-.654.725-.794a.174.174,0,0,0,0-.2.112.112,0,0,0-.058,0,1.409,1.409,0,0,0-1.667,1.149,1.573,1.573,0,0,0-.042.392,2.093,2.093,0,0,0,0,.318L9.447,12.323H9.172a1.429,1.429,0,0,0-1.328.973,1.742,1.742,0,0,0,.3,1.747A1.316,1.316,0,0,0,9.7,15.4a1.609,1.609,0,0,0,.884-1.477,1.957,1.957,0,0,0,0-.318l.617-.691.267.3a.1.1,0,0,0,.167,0l.058-.065a.125.125,0,0,1,.185.007.166.166,0,0,1,.006.208h0l-.067.065a.153.153,0,0,0,0,.187L13.222,15.2a.872.872,0,0,0,1.342,0,1.168,1.168,0,0,0,0-1.513h0l-1.4-1.588a.115.115,0,0,0-.167,0l-.058.075a.125.125,0,0,1-.185-.007.166.166,0,0,1-.006-.208h0l.058-.065a.131.131,0,0,0,0-.187l-.267-.308.617-.691Zm.467,4.521a.552.552,0,0,1-.25-.056l.917-1.037a.893.893,0,0,1-.016.615.758.758,0,0,1-.4.422.6.6,0,0,1-.25.056Zm-1.333-3.456a.444.444,0,0,0-.09.3.429.429,0,0,0,.132.284.359.359,0,0,0,.475,0l1.317,1.485.042.056L13.4,15.022h0L12.08,13.528a.457.457,0,0,0-.042-.588.337.337,0,0,0-.475,0l-.183-.215,1.008-1.14Zm.475-1.336-2.675,3.017a.155.155,0,0,0,0,.121,1.4,1.4,0,0,1-.549,1.494,1.09,1.09,0,0,1-1.43-.21,1.449,1.449,0,0,1-.187-1.6A1.134,1.134,0,0,1,9.5,12.631a.12.12,0,0,0,.108,0l2.675-3.017a.155.155,0,0,0,0-.121,1.36,1.36,0,0,1,.833-1.616,1.139,1.139,0,0,1,.358,0l-.617.7a.176.176,0,0,0,0,.14l.233.794a.142.142,0,0,0,.075.084l.708.271a.128.128,0,0,0,.125,0l.617-.841V9.1a1.266,1.266,0,0,1-1.158,1.336,1.117,1.117,0,0,1-.3-.047.091.091,0,0,0-.108,0Z" transform="translate(-1.284 -1.711)"/><path class="a" d="M14.792,14.566l-.158.187L13.45,13.427l.167-.187Z" transform="translate(-2.163 -2.086)"/></svg>