<svg xmlns="http://www.w3.org/2000/svg" width="20" height="20" viewBox="0 0 20 20"><defs><style>.a{fill:#010101;}</style></defs><g transform="translate(12 12)"><g transform="translate(-12 -12)"><path class="a" d="M10,0A10,10,0,1,0,20,10,10,10,0,0,0,10,0Zm0,19.358A9.358,9.358,0,1,1,19.358,10,9.358,9.358,0,0,1,10,19.358Z"/><path class="a" d="M10,2.32A7.678,7.678,0,1,0,12.9,17.14l-.23-.571a7.015,7.015,0,0,1-1.647.436l.111-.19a7.771,7.771,0,0,0,.935-4.951,2.858,2.858,0,0,0,.642-1.261A7.142,7.142,0,0,1,15,14.189l.174.643a6.938,6.938,0,0,1-2,1.46l.285.547A7.682,7.682,0,0,0,10,2.32Zm6.977,6.664-.2-.111a7.679,7.679,0,0,0-4.942-.928A2.691,2.691,0,0,0,10.583,7.3a7.127,7.127,0,0,1,3.58-2.309l.634-.175A7.081,7.081,0,0,1,16.982,8.984ZM8.991,3.01l-.111.2-.111.2.546.286.1-.175.325-.571H10a7,7,0,0,1,4.213,1.4L14,4.407a7.785,7.785,0,0,0-4.158,2.84,2.682,2.682,0,0,0-1.338.436,7.1,7.1,0,0,1,.539-3.435L8.484,4.01a7.7,7.7,0,0,0-.539,4.157,2.7,2.7,0,0,0-.634,1.254,7.142,7.142,0,0,1-2.3-3.586l-.174-.6A7.061,7.061,0,0,1,8.991,3.01ZM2.956,10a7.03,7.03,0,0,1,1.4-4.221l.055.254a7.8,7.8,0,0,0,2.843,4.126A2.693,2.693,0,0,0,7.692,11.5a7.118,7.118,0,0,1-4.158-.9l-.57-.325C2.956,10.175,2.956,10.087,2.956,10Zm.071,1.016.2.111a7.759,7.759,0,0,0,3.833,1.016,8.578,8.578,0,0,0,1.109-.079,2.754,2.754,0,0,0,1.259.635,7.127,7.127,0,0,1-3.58,2.309l-.634.175a7.081,7.081,0,0,1-2.186-4.165ZM10.6,16.482l-.325.571H10a7,7,0,0,1-4.213-1.4l.253-.048A7.785,7.785,0,0,0,10.2,12.753a2.682,2.682,0,0,0,1.338-.436A7.151,7.151,0,0,1,10.6,16.482ZM10,12.15A2.15,2.15,0,1,1,12.151,10,2.148,2.148,0,0,1,10,12.15ZM15.6,14.007a7.8,7.8,0,0,0-2.843-4.165A2.693,2.693,0,0,0,12.317,8.5a7.118,7.118,0,0,1,4.158.9l.57.325V10a7.038,7.038,0,0,1-1.4,4.229Z" transform="translate(0)"/></g></g></svg>