<svg width="20" height="20" viewBox="0 0 20 20" fill="none" xmlns="http://www.w3.org/2000/svg">
<path d="M18.4639 14.4641L18.4638 14.4641V14.4765L18.4638 17.1862L18.4638 17.1882C18.4645 17.3701 18.4273 17.5502 18.3544 17.7169C18.2815 17.8836 18.1746 18.0332 18.0405 18.1562C17.9065 18.2792 17.7482 18.3729 17.5759 18.4311C17.4048 18.489 17.2237 18.5107 17.0439 18.4951C14.3439 18.2009 11.7505 17.278 9.47179 15.8002L9.4718 15.8002L9.4679 15.7977C7.34746 14.4503 5.5497 12.6525 4.20229 10.5321L4.20231 10.5321L4.19992 10.5284C2.71689 8.23913 1.79367 5.63286 1.50498 2.92054C1.48927 2.74108 1.51083 2.5603 1.56834 2.38956C1.62623 2.21767 1.71929 2.05971 1.84157 1.92575C1.96385 1.79179 2.11269 1.68476 2.2786 1.61148C2.44445 1.53823 2.62372 1.50029 2.80502 1.50009H5.51451V1.50011L5.51943 1.50006C5.83645 1.49694 6.14379 1.60921 6.38417 1.81593C6.62401 2.02219 6.78085 2.30845 6.82562 2.62155C6.945 3.52525 7.16613 4.41255 7.48481 5.26658L7.48524 5.2677C7.57313 5.50151 7.59215 5.75562 7.54005 5.99991C7.48804 6.24378 7.36732 6.46767 7.19217 6.64514L6.04613 7.79118C5.88698 7.95033 5.85378 8.19622 5.96504 8.39188C7.29534 10.7314 9.23245 12.6685 11.572 13.9988C11.7677 14.1101 12.0135 14.0769 12.1727 13.9177L13.3178 12.7726C13.3181 12.7723 13.3185 12.772 13.3188 12.7717C13.4962 12.5965 13.7201 12.4758 13.964 12.4238C14.2083 12.3717 14.4624 12.3907 14.6962 12.4786L14.6973 12.4791C15.5513 12.7977 16.4387 13.0189 17.3424 13.1383C17.6589 13.1834 17.9479 13.3431 18.1546 13.5871C18.3618 13.8316 18.4719 14.1437 18.4639 14.4641Z" stroke="#007CC3" stroke-linecap="round" stroke-linejoin="round"/>
</svg>
