<svg id="Layer_1" data-name="Layer 1" xmlns="http://www.w3.org/2000/svg" viewBox="0 0 19.78 19.69"><defs><style>.cls-1{fill:#fff;}.cls-1,.cls-2,.cls-3,.cls-4{stroke:#231f20;stroke-miterlimit:10;}.cls-1,.cls-2{stroke-width:1.5px;}.cls-2,.cls-3{fill:#231f20;}.cls-3,.cls-4{stroke-width:0.25px;}.cls-4{fill:none;}.cls-5{fill:#010101;}</style></defs><path class="cls-1" d="M15.94,22.61" transform="translate(-2.15 -2.17)"/><path class="cls-2" d="M6.07,16.36" transform="translate(-2.15 -2.17)"/><rect class="cls-3" x="7.58" y="0.13" width="4.52" height="3.54"/><rect class="cls-4" x="15.13" y="8.06" width="4.52" height="3.54"/><rect class="cls-3" x="7.58" y="16.02" width="4.52" height="3.54"/><rect class="cls-4" x="0.13" y="8.06" width="4.52" height="3.54"/><polyline class="cls-4" points="2.39 7.39 2.39 1.9 7.04 1.9"/><polyline class="cls-4" points="12.68 1.9 17.39 1.9 17.39 7.39"/><polyline class="cls-4" points="17.39 12.19 17.39 17.79 12.68 17.79"/><polyline class="cls-4" points="7.04 18.09 2.39 18.09 2.39 12.19"/><polygon class="cls-3" points="7.3 1.84 6.03 2.57 6.03 1.11 7.3 1.84"/><polygon class="cls-3" points="17.39 7.71 16.66 6.45 18.12 6.45 17.39 7.71"/><polygon class="cls-3" points="12.4 17.79 13.67 17.07 13.67 18.52 12.4 17.79"/><polygon class="cls-3" points="2.39 11.92 3.12 13.18 1.66 13.18 2.39 11.92"/><path class="cls-5" d="M15.77,12.2a4,4,0,0,0-.91-1.63l.12-.13a.24.24,0,0,0,0-.33L13.84,8.92a.22.22,0,0,0-.32,0l-.13.13a3.83,3.83,0,0,0-1.56-1A3.67,3.67,0,0,0,10,8a.23.23,0,0,0-.18.22.25.25,0,0,0,.17.24l.23,0a3.34,3.34,0,0,1,1.58.92l.61.64-.06.07a.24.24,0,0,0,0,.33l1.14,1.19a.22.22,0,0,0,.32,0l.07-.07.61.64a3.43,3.43,0,0,1,.89,1.64l.05.23a.23.23,0,0,0,.22.18h0a.23.23,0,0,0,.22-.18A4.06,4.06,0,0,0,15.77,12.2Z" transform="translate(-2.15 -2.17)"/><path class="cls-5" d="M12.06,10.91,8.14,15a.24.24,0,0,0,0,.33l.69.72a.23.23,0,0,0,.16.06A.25.25,0,0,0,9.15,16L13.07,12Z" transform="translate(-2.15 -2.17)"/></svg>