<svg xmlns="http://www.w3.org/2000/svg" width="20.278" height="20.139" viewBox="0 0 20.278 20.139"><defs><style>.a{fill:#fff;}.a,.b,.c,.d,.e{stroke:#231f20;stroke-miterlimit:10;}.a,.b{stroke-width:1.5px;}.b,.c{fill:#231f20;}.c,.d{stroke-width:0.278px;}.e{fill:none;stroke-width:0.75px;}.f{fill:#010101;}</style></defs><g transform="translate(0.139 0.139)"><path class="a" d="M15.94,22.61" transform="translate(-1.944 -2.61)"/><path class="b" d="M6.07,16.36" transform="translate(-2.187 -2.514)"/><rect class="c" width="4.631" height="3.486" transform="translate(7.633)"/><rect class="d" width="4.631" height="3.486" transform="translate(15.369 7.809)"/><rect class="c" width="4.631" height="3.486" transform="translate(7.633 15.648)"/><rect class="d" width="4.631" height="3.486" transform="translate(0 7.809)"/><path class="e" d="M2.39,7.306V1.9H7.154" transform="translate(-0.074 -0.157)"/><path class="e" d="M12.68,1.9h4.826V7.306" transform="translate(0.178 -0.157)"/><path class="e" d="M17.506,12.19V17.7H12.68" transform="translate(0.178 -0.314)"/><path class="e" d="M7.154,18H2.39V12.19" transform="translate(-0.074 -0.314)"/><path class="c" d="M7.331,1.829l-1.3.721V1.11Z" transform="translate(0.015 -0.145)"/><path class="c" d="M17.408,7.692l-.75-1.241h1.5Z" transform="translate(0.277 -0.227)"/><path class="c" d="M12.4,17.779l1.3-.709V18.5Z" transform="translate(0.172 -0.388)"/><path class="c" d="M2.408,11.92l.75,1.241H1.66Z" transform="translate(-0.092 -0.31)"/><path class="f" d="M15.917,12.135a3.9,3.9,0,0,0-.932-1.6l.123-.128a.233.233,0,0,0,0-.325L13.941,8.908a.231.231,0,0,0-.327,0l-.133.128a3.946,3.946,0,0,0-1.6-.985A3.907,3.907,0,0,0,10.007,8a.229.229,0,0,0-.184.216.247.247,0,0,0,.174.24h.236a3.456,3.456,0,0,1,1.619.906l.618.62-.062.069a.233.233,0,0,0,0,.325l1.167,1.172a.231.231,0,0,0,.327,0l.072-.069.625.63a3.341,3.341,0,0,1,.912,1.615l.051.227a.234.234,0,0,0,.225.177h0a.234.234,0,0,0,.225-.177,3.848,3.848,0,0,0-.1-1.822Z" transform="translate(-2.095 -2.386)"/><path class="f" d="M12.158,10.91,8.142,14.938a.233.233,0,0,0,0,.325l.7.709a.241.241,0,0,0,.167.059.256.256,0,0,0,.167-.108L13.2,11.984Z" transform="translate(-2.138 -2.431)"/></g></svg>