<svg xmlns="http://www.w3.org/2000/svg" width="24" height="24" viewBox="0 0 24 24" class="svg-robot-icon">
  <defs>
    <style>
    .svg-robot-icon {
        height: inherit;
        width: inherit;
      }
	  <!-- @media screen and (min-width: 5000px) {
       .svg-robot-icon {
        height: 4vmin !important;
        width: 4vmin !important;
       }
	  }
	  @media screen and (min-width: 1300px) and (max-width: 3000px) {
       .svg-robot-icon {
        height: 4vmin !important;
        width: 4vmin !important;
       }
	  }
	  @media screen and (max-width: 600px) {
       .svg-robot-icon {
        height: 4vmin !important;
        width: 4vmin !important;
       }
	  } -->
    </style>
  </defs>
  <g id="Robot" transform="translate(-45.358 -34.438)">
    <rect id="Rectangle_10" data-name="Rectangle 10" width="24" height="24" transform="translate(45.358 34.438)" fill="none"/>
    <g id="Group_36" data-name="Group 36" transform="translate(-0.66 1.284)">
      <g id="Group_16" data-name="Group 16" transform="translate(56.645 34.154)">
        <path id="Path_28" data-name="Path 28" d="M217.308,37.053l1.692-2.9,1.666,2.914Z" transform="translate(-217.308 -34.154)" stroke="currentColor" stroke-width="0.25"/>
      </g>
      <g id="Group_17" data-name="Group 17" transform="translate(50.553 44.744)">
        <path id="Path_29" data-name="Path 29" d="M105.907,249a1.1,1.1,0,1,1-1.1,1.1A1.1,1.1,0,0,1,105.907,249Z" transform="translate(-104.443 -248.636)" stroke="currentColor" stroke-width="0.25"/>
        <path id="Path_30" data-name="Path 30" d="M99.217,244.875a1.464,1.464,0,1,1,1.464-1.464A1.466,1.466,0,0,1,99.217,244.875Zm0-2.21a.746.746,0,1,0,.746.745A.746.746,0,0,0,99.217,242.665Z" transform="translate(-97.753 -241.947)" stroke="currentColor" stroke-width="0.25"/>
      </g>
      <g id="Group_18" data-name="Group 18" transform="translate(63.168 44.744)">
        <path id="Path_31" data-name="Path 31" d="M353.449,249a1.1,1.1,0,1,1-1.1,1.1A1.1,1.1,0,0,1,353.449,249Z" transform="translate(-351.986 -248.636)" stroke="currentColor" stroke-width="0.25"/>
        <path id="Path_32" data-name="Path 32" d="M346.76,244.875a1.464,1.464,0,1,1,1.464-1.464A1.466,1.466,0,0,1,346.76,244.875Zm0-2.21a.746.746,0,1,0,.746.745A.746.746,0,0,0,346.76,242.665Z" transform="translate(-345.296 -241.947)" stroke="currentColor" stroke-width="0.25"/>
      </g>
      <g id="Group_19" data-name="Group 19" transform="translate(65.676 52.335)">
        <path id="Path_33" data-name="Path 33" d="M401.567,399.059a1.105,1.105,0,0,1,2.21,0" transform="translate(-401.208 -397.596)" fill="#fff" stroke="currentColor" stroke-width="0.25"/>
        <path id="Path_34" data-name="Path 34" d="M397.446,392.37h-.718a.746.746,0,0,0-1.492,0h-.718a1.464,1.464,0,0,1,2.929,0Z" transform="translate(-394.517 -390.906)" stroke="currentColor" stroke-width="0.25"/>
      </g>
      <g id="Group_20" data-name="Group 20" transform="translate(54.12 38.424)">
        <path id="Path_35" data-name="Path 35" d="M175.8,123.97h-7.69a.359.359,0,0,1-.359-.359v-5.3a.359.359,0,0,1,.359-.359h7.69a.359.359,0,0,1,.359.359v5.3A.359.359,0,0,1,175.8,123.97Zm-7.331-.718h6.972v-4.583h-6.972Z" transform="translate(-167.755 -117.95)" stroke="currentColor" stroke-width="0.25"/>
      </g>
      <g id="Group_21" data-name="Group 21" transform="translate(52.763 45.659)">
        <path id="Path_36" data-name="Path 36" d="M150.527,270.4h-7.69a.36.36,0,0,1-.356-.31l-1.357-9.777a.36.36,0,0,1,.356-.409h10.405a.36.36,0,0,1,.356.409l-1.358,9.777A.36.36,0,0,1,150.527,270.4Zm-7.377-.718h7.064l1.258-9.058h-9.58Z" transform="translate(-141.12 -259.907)" stroke="currentColor" stroke-width="0.25"/>
      </g>
      <g id="Group_22" data-name="Group 22" transform="translate(64.666 47.058)">
        <line id="Line_11" data-name="Line 11" x2="2.067" y2="5.51" transform="translate(0.336 0.126)" fill="#fff" stroke="currentColor" stroke-width="0.25"/>
        <path id="Path_37" data-name="Path 37" d="M376.761,293.122l-2.067-5.51.673-.253,2.067,5.51Z" transform="translate(-374.694 -287.36)" stroke="currentColor" stroke-width="0.25"/>
      </g>
      <g id="Group_23" data-name="Group 23" transform="translate(48.018 52.335)">
        <path id="Path_38" data-name="Path 38" d="M57.276,399.059a1.1,1.1,0,0,0-2.21,0" transform="translate(-54.707 -397.596)" fill="#fff" stroke="currentColor" stroke-width="0.25"/>
        <path id="Path_39" data-name="Path 39" d="M50.946,392.37h-.718a.746.746,0,0,0-1.491,0h-.718a1.464,1.464,0,0,1,2.928,0Z" transform="translate(-48.018 -390.906)" stroke="currentColor" stroke-width="0.25"/>
      </g>
      <g id="Group_24" data-name="Group 24" transform="translate(49.217 47.058)">
        <line id="Line_12" data-name="Line 12" x1="2.067" y2="5.51" transform="translate(0.336 0.126)" fill="#fff" stroke="currentColor" stroke-width="0.25"/>
        <path id="Path_40" data-name="Path 40" d="M72.214,293.122l-.673-.253,2.067-5.51.673.253Z" transform="translate(-71.541 -287.36)" stroke="currentColor" stroke-width="0.25"/>
      </g>
      <g id="Group_25" data-name="Group 25" transform="translate(55.593 40.466)">
        <path id="Path_41" data-name="Path 41" d="M204.755,165.582a.529.529,0,1,1-.529-.529A.53.53,0,0,1,204.755,165.582Z" transform="translate(-203.338 -164.694)" fill="#fff" stroke="currentColor" stroke-width="0.25"/>
        <path id="Path_42" data-name="Path 42" d="M197.537,159.781a.889.889,0,1,1,.888-.889A.889.889,0,0,1,197.537,159.781Zm0-1.059a.17.17,0,1,0,.17.17A.17.17,0,0,0,197.537,158.722Z" transform="translate(-196.648 -158.004)" stroke="currentColor" stroke-width="0.25"/>
      </g>
      <g id="Group_26" data-name="Group 26" transform="translate(59.35 40.466)">
        <path id="Path_43" data-name="Path 43" d="M278.492,165.582a.529.529,0,1,1-.53-.529A.53.53,0,0,1,278.492,165.582Z" transform="translate(-277.075 -164.694)" fill="#fff" stroke="currentColor" stroke-width="0.25"/>
        <path id="Path_44" data-name="Path 44" d="M271.272,159.781a.889.889,0,1,1,.889-.889A.889.889,0,0,1,271.272,159.781Zm0-1.059a.17.17,0,1,0,.17.17A.17.17,0,0,0,271.272,158.722Z" transform="translate(-270.384 -158.004)" stroke="currentColor" stroke-width="0.25"/>
      </g>
      <g id="Group_27" data-name="Group 27" transform="translate(57.965 36.281)">
        <line id="Line_13" data-name="Line 13" y2="2.502" transform="translate(0.359 0)" fill="#fff" stroke="currentColor" stroke-width="0.25"/>
        <rect id="Rectangle_7" data-name="Rectangle 7" width="0.718" height="2.502" transform="translate(0 0)" stroke="currentColor" stroke-width="0.25"/>
      </g>
    </g>
  </g>
</svg>
