<?xml version="1.0" encoding="utf-8"?>
<!-- Generator: Adobe Illustrator 16.0.0, SVG Export Plug-In . SVG Version: 6.00 Build 0)  -->
<!DOCTYPE svg PUBLIC "-//W3C//DTD SVG 1.1//EN" "http://www.w3.org/Graphics/SVG/1.1/DTD/svg11.dtd">
<svg version="1.1" id="Layer_1" xmlns="http://www.w3.org/2000/svg" xmlns:xlink="http://www.w3.org/1999/xlink" x="0px" y="0px"
	 width="500px" height="500px" viewBox="0 0 500 500" style="background-color: white;" enable-background="new 0 0 500 500" xml:space="preserve">
<g>
	<g>
		<g>
			<path d="M76.771,406.198H60.775v-61.141c0-104.34,84.885-189.225,189.225-189.225s189.225,84.884,189.225,189.225h-15.996
				c0-95.516-77.713-173.229-173.229-173.229c-95.516,0-173.229,77.713-173.229,173.229V406.198z"/>
		</g>
		<g>
			<line fill="#FFFFFF" x1="21.536" y1="406.198" x2="478.463" y2="406.198"/>
			<rect x="21.536" y="398.201" width="456.927" height="15.995"/>
		</g>
		<g>
			<line fill="#FFFFFF" x1="250" y1="163.83" x2="250" y2="93.802"/>
			<rect x="242.002" y="93.802" width="15.996" height="70.028"/>
		</g>
		<g>
			<line fill="#FFFFFF" x1="196.564" y1="93.802" x2="303.442" y2="93.802"/>
			<rect x="196.565" y="85.804" width="106.877" height="15.996"/>
		</g>
		<g>
			<g>
				<g>
					<g>
						<g>
							<path d="M317.958,298.488h-7.998v-0.723h-7.894l-0.146-7.887c-0.042-2.981-0.341-5.976-0.883-8.901l-0.854-4.614l8.971-7.455
								c-0.604-1.703-1.279-3.363-2.016-4.989l-11.646,1.077l-2.654-3.878c-3.635-5.287-8.165-9.818-13.48-13.466l-3.87-2.654
								l1.098-11.827c-1.584-0.736-3.203-1.41-4.851-2.015l-7.608,9.151l-4.614-0.854c-6.643-1.237-12.382-1.23-19.025,0
								l-4.614,0.854l-7.602-9.151c-1.654,0.605-3.266,1.279-4.85,2.015l1.091,11.827l-3.87,2.654
								c-5.316,3.648-9.846,8.179-13.48,13.466l-2.654,3.878l-11.646-1.077c-0.736,1.626-1.411,3.286-2.015,4.989l8.971,7.455
								l-0.854,4.614c-0.542,2.926-0.841,5.92-0.882,8.901l-0.104,7.887h-7.894v-0.723v1.445h-7.998l-0.035-8.415
								c0-0.104,0-0.201,0-0.306v-7.365l-9.492-7.887l1.334-4.954c1.723-6.379,4.19-12.445,7.324-18.025l2.543-4.523l13.056,1.202
								c3.217-4.044,6.866-7.692,10.917-10.909l-1.216-13.161l4.482-2.55c5.572-3.176,11.569-5.67,17.823-7.414l4.989-1.39
								l8.484,10.208c5.232-0.605,10.187-0.612,15.412,0l8.484-10.208l4.989,1.39c6.261,1.744,12.265,4.238,17.83,7.414l4.482,2.55
								l-1.224,13.167c4.052,3.21,7.706,6.865,10.917,10.902l13.056-1.202l2.544,4.523c3.134,5.58,5.601,11.646,7.323,18.025
								l1.334,4.954l-9.52,7.914l0.035,7.755c0,0.104,0,0.201,0,0.306V298.488z M291.01,290.128h-15.995
								c0-13.786-11.222-25.008-25.015-25.008c-13.793,0-25.015,11.222-25.015,25.008h-15.996c0-22.61,18.393-41.004,41.011-41.004
								S291.01,267.518,291.01,290.128z"/>
						</g>
					</g>
				</g>
			</g>
			<g>
				<g>
					<g>
						<g>
							<path d="M266.19,366.904l-8.484-10.215c-5.225,0.619-10.179,0.619-15.405,0l-8.491,10.215l-4.989-1.39
								c-6.254-1.744-12.251-4.238-17.823-7.414l-4.482-2.551l1.216-13.167c-4.044-3.211-7.692-6.858-10.909-10.909l-13.063,1.202
								l-2.543-4.524c-3.134-5.586-5.601-11.646-7.324-18.018l-1.334-4.954l9.52-7.914l-0.028-14.301l13.786-1.967l0.264,0.925
								h1.841l0.139,7.887c0.042,2.946,0.34,5.948,0.889,8.922l0.841,4.606l-8.964,7.449c0.604,1.695,1.279,3.363,2.015,4.982
								l11.646-1.07l2.654,3.863c3.648,5.309,8.186,9.847,13.474,13.467l3.877,2.654l-1.091,11.841
								c1.584,0.736,3.196,1.41,4.85,2.015l7.595-9.145l4.6,0.841c6.727,1.244,12.396,1.23,19.067,0l4.606-0.841l7.595,9.145
								c1.647-0.604,3.267-1.278,4.851-2.015l-1.091-11.841l3.877-2.654c5.288-3.62,9.825-8.158,13.474-13.467l2.654-3.863
								l11.639,1.07c0.736-1.619,1.411-3.28,2.016-4.982l-8.971-7.456l0.854-4.613c0.549-2.968,0.848-5.955,0.883-8.895l0.09-7.9
								h7.907l0.008,0.882l1.348-0.813l6.685,7.894h-0.028h0.028v7.414l9.484,7.88l-1.334,4.954
								c-1.729,6.4-4.196,12.466-7.33,18.025l-2.544,4.517l-13.049-1.202c-3.218,4.051-6.865,7.698-10.91,10.909l1.217,13.167
								l-4.482,2.551c-5.565,3.176-11.569,5.67-17.83,7.414L266.19,366.904z M250,330.57c-22.618,0-41.011-18.394-41.011-41.011
								h15.996c0,13.793,11.222,25.015,25.015,25.015c13.793,0,25.015-11.222,25.015-25.015h15.995
								C291.01,312.176,272.618,330.57,250,330.57z"/>
						</g>
					</g>
				</g>
			</g>
		</g>
	</g>
	<g>
		<path fill="#FFFFFF" d="M94.691,209.594c1.64-13.487,13.911-23.097,27.392-21.451c13.494,1.647,23.097,13.925,21.45,27.413
			c-1.646,13.48-13.917,23.083-27.412,21.429C102.641,235.345,93.037,223.074,94.691,209.594z"/>
		<path d="M119.178,245.171c-1.334,0-2.682-0.077-4.03-0.243c-8.637-1.049-16.35-5.406-21.721-12.271
			c-5.364-6.858-7.734-15.391-6.678-24.028l0,0c1.049-8.644,5.406-16.364,12.264-21.735c6.865-5.371,15.377-7.754,24.042-6.691
			c8.644,1.056,16.364,5.413,21.729,12.278c5.371,6.858,7.748,15.398,6.691,24.049c-1.056,8.637-5.413,16.357-12.278,21.721
			C133.409,242.781,126.419,245.171,119.178,245.171z M119.074,195.961c-3.69,0-7.248,1.223-10.194,3.53
			c-3.495,2.738-5.712,6.671-6.247,11.069v0.007c-0.542,4.398,0.667,8.741,3.397,12.229c2.731,3.495,6.657,5.712,11.056,6.247
			c4.398,0.535,8.762-0.667,12.257-3.398c3.488-2.73,5.711-6.664,6.247-11.062s-0.674-8.748-3.405-12.244
			c-2.738-3.495-6.671-5.718-11.069-6.253C120.429,196.002,119.748,195.961,119.074,195.961z"/>
	</g>
	<g>
		<polygon points="393.836,316.409 431.22,381.156 468.61,316.409 		"/>
	</g>
</g>
<g>
</g>
<g>
</g>
<g>
</g>
<g>
</g>
<g>
</g>
<g>
</g>
</svg>
