<svg xmlns="http://www.w3.org/2000/svg" width="24" height="24" viewBox="0 0 24 24" class="svg-transition-icon">
  <defs>
    <style>
    .svg-transition-icon {
        height: auto;
        width: auto;
      }
	  <!-- @media screen and (min-width: 5000px) {
       .svg-transition-icon {
        height: 4vmin !important;
        width: 4vmin !important;
       }
	  }
	  @media screen and (min-width: 1300px) and (max-width: 3000px) {
       .svg-transition-icon {
        height: 4vmin !important;
        width: 4vmin !important;
       }
	  }
	  @media screen and (max-width: 600px) {
       .svg-transition-icon {
        height: 4vmin !important;
        width: 4vmin !important;
       }
	  } -->
    </style>
  </defs>
  <g id="Transition" transform="translate(-51.11 -32.275)">
    <rect id="Rectangle_11" data-name="Rectangle 11" width="24" height="24" transform="translate(51.11 32.275)" fill="none"/>
    <g id="Group_37" data-name="Group 37" transform="translate(0 0.063)">
      <g id="Group_28" data-name="Group 28" transform="translate(61.251 33.212)">
        <path id="Path_45" data-name="Path 45" d="M219.48,45.051a5.879,5.879,0,0,1-1.7-.251l.188-.623a5.268,5.268,0,1,0-2.874-2.14l-.542.359a5.92,5.92,0,1,1,5.339,2.641Q219.684,45.051,219.48,45.051Z" transform="translate(-213.568 -33.212)" stroke="#000" stroke-width="0.1"/>
      </g>
      <g id="Group_29" data-name="Group 29" transform="translate(53.11 43.391)">
        <path id="Path_46" data-name="Path 46" d="M59.3,245.652a.325.325,0,0,1-.016-.65,5.278,5.278,0,0,0,.809-.1.325.325,0,1,1,.133.637,5.929,5.929,0,0,1-.909.117Zm-.866-.022-.034,0a5.9,5.9,0,0,1-.9-.164.325.325,0,1,1,.166-.629,5.257,5.257,0,0,0,.8.146.325.325,0,0,1-.033.649Zm2.557-.331a.325.325,0,0,1-.115-.629,5.289,5.289,0,0,0,.738-.347.325.325,0,0,1,.322.565,5.921,5.921,0,0,1-.829.39A.323.323,0,0,1,60.994,245.3Zm-4.229-.11a.324.324,0,0,1-.131-.027,5.918,5.918,0,0,1-.808-.433.325.325,0,1,1,.351-.548,5.293,5.293,0,0,0,.72.386.325.325,0,0,1-.131.623Zm5.73-.744a.325.325,0,0,1-.2-.58,5.312,5.312,0,0,0,.6-.556.325.325,0,1,1,.478.441,5.947,5.947,0,0,1-.671.624A.324.324,0,0,1,62.5,244.445Zm-7.186-.188a.325.325,0,0,1-.215-.082,5.984,5.984,0,0,1-.638-.659.325.325,0,0,1,.5-.415,5.314,5.314,0,0,0,.568.587.325.325,0,0,1-.216.569Zm8.356-1.083a.325.325,0,0,1-.27-.506,5.288,5.288,0,0,0,.4-.712.325.325,0,1,1,.59.274,5.944,5.944,0,0,1-.45.8A.325.325,0,0,1,63.666,243.174Zm-9.459-.247a.325.325,0,0,1-.28-.159,5.921,5.921,0,0,1-.407-.821.325.325,0,1,1,.6-.243,5.272,5.272,0,0,0,.362.731.325.325,0,0,1-.279.492Zm10.187-1.321a.322.322,0,0,1-.089-.013.325.325,0,0,1-.223-.4,5.276,5.276,0,0,0,.162-.8.325.325,0,0,1,.645.08,5.933,5.933,0,0,1-.182.9A.325.325,0,0,1,64.394,241.606Zm-10.832-.282a.325.325,0,0,1-.317-.252,5.924,5.924,0,0,1-.135-.907.325.325,0,1,1,.649-.046,5.288,5.288,0,0,0,.121.807.326.326,0,0,1-.317.4Zm11.044-1.433a.325.325,0,0,1-.325-.315,5.281,5.281,0,0,0-.088-.812.325.325,0,0,1,.639-.12,5.95,5.95,0,0,1,.1.912.325.325,0,0,1-.315.335ZM53.44,239.6h-.027a.325.325,0,0,1-.3-.351,5.932,5.932,0,0,1,.146-.905.325.325,0,0,1,.632.153,5.286,5.286,0,0,0-.13.806A.325.325,0,0,1,53.44,239.6Zm10.847-1.408a.325.325,0,0,1-.306-.216,5.264,5.264,0,0,0-.332-.745.325.325,0,1,1,.572-.31,5.912,5.912,0,0,1,.373.838.325.325,0,0,1-.306.434Zm-10.441-.272a.325.325,0,0,1-.3-.45,5.931,5.931,0,0,1,.417-.817.325.325,0,0,1,.555.34,5.278,5.278,0,0,0-.371.727A.325.325,0,0,1,53.847,237.921Zm.9-1.474a.325.325,0,0,1-.248-.536,5.96,5.96,0,0,1,.646-.651.325.325,0,1,1,.425.492,5.3,5.3,0,0,0-.575.58A.325.325,0,0,1,54.749,236.446Zm1.308-1.13a.325.325,0,0,1-.172-.6,5.934,5.934,0,0,1,.813-.424.325.325,0,0,1,.255.6,5.271,5.271,0,0,0-.723.377A.324.324,0,0,1,56.057,235.317Zm5.037-.446a.324.324,0,0,1-.122-.024l-.037-.015a.325.325,0,1,1,.237-.606l.043.017a.325.325,0,0,1-.122.627Zm-3.449-.231a.325.325,0,0,1-.079-.641,5.924,5.924,0,0,1,.9-.154.325.325,0,1,1,.059.648,5.285,5.285,0,0,0-.8.137A.318.318,0,0,1,57.646,234.64Zm2.58-.037a.324.324,0,0,1-.07-.008,5.292,5.292,0,0,0-.809-.113.325.325,0,1,1,.04-.649,5.935,5.935,0,0,1,.908.127.325.325,0,0,1-.07.643Z" transform="translate(-53.11 -233.832)" stroke="#000" stroke-width="0.1"/>
      </g>
      <g id="Group_30" data-name="Group 30" transform="translate(59.508 40.136)">
        <path id="Path_47" data-name="Path 47" d="M179.7,178.189l-.5-.419,6.817-8.1.5.419Z" transform="translate(-179.204 -169.667)" stroke="#000" stroke-width="0.1"/>
      </g>
      <g id="Group_31" data-name="Group 31" transform="translate(57.56 47.844)">
        <path id="Path_48" data-name="Path 48" d="M147.217,329.128a1.13,1.13,0,1,1,1.13,1.13A1.13,1.13,0,0,1,147.217,329.128Z" transform="translate(-146.892 -327.672)" stroke="#000" stroke-width="0.1"/>
        <path id="Path_49" data-name="Path 49" d="M142.262,324.5a1.456,1.456,0,1,1,1.456-1.455A1.457,1.457,0,0,1,142.262,324.5Zm0-2.261a.805.805,0,1,0,.805.805A.806.806,0,0,0,142.262,322.237Z" transform="translate(-140.807 -321.587)" stroke="#000" stroke-width="0.1"/>
      </g>
      <g id="Group_32" data-name="Group 32" transform="translate(65.33 38.35)">
        <path id="Path_50" data-name="Path 50" d="M293.946,135.572l2.369,1.9.464-3Z" transform="translate(-293.946 -134.471)" stroke="#000" stroke-width="0.1"/>
      </g>
    </g>
  </g>
</svg>
