<svg width="42" height="39" viewBox="0 0 42 39" fill="none" xmlns="http://www.w3.org/2000/svg">
<path fill="#333333" d="M36.3438 31.9988H37.3438C37.3438 32.4474 37.0451 32.841 36.6131 32.9618C36.1812 33.0827 35.7216 32.9011 35.4889 32.5176L36.3438 31.9988ZM32.8956 26.3173V25.3173H33.4585L33.7505 25.7984L32.8956 26.3173ZM35.3438 31.9988V13H37.3438V31.9988H35.3438ZM30.3438 8H11.3107V6H30.3438V8ZM6.31075 13V20.3173H4.31075V13H6.31075ZM11.3107 25.3173H32.8956V27.3173H11.3107V25.3173ZM33.7505 25.7984L37.1986 31.48L35.4889 32.5176L32.0408 26.8361L33.7505 25.7984ZM6.31075 20.3173C6.31075 23.0787 8.54932 25.3173 11.3107 25.3173V27.3173C7.44475 27.3173 4.31075 24.1833 4.31075 20.3173H6.31075ZM11.3107 8C8.54932 8 6.31075 10.2386 6.31075 13H4.31075C4.31075 9.13401 7.44475 6 11.3107 6V8ZM35.3438 13C35.3438 10.2386 33.1052 8 30.3438 8V6C34.2097 6 37.3438 9.134 37.3438 13H35.3438Z"/>
<circle fill="#333333" r="3.44811" transform="matrix(1 0 0 -1 14.7928 17.3444)"/>
<circle fill="#333333" r="3.44811" transform="matrix(1 0 0 -1 26.8612 17.3444)"/>
<path stroke="#333333" d="M34.3291 8.49892L40.6543 14.328V18.2072L36.3442 22.5173" stroke-width="2"/>
<path stroke="#333333" d="M7.82812 7.99776L0.999634 13.8952V17.7744L5.30977 22.0845" stroke-width="2" stroke-linecap="round"/>
</svg>
