<svg width="20" height="20" viewBox="0 0 20 20" fill="none" xmlns="http://www.w3.org/2000/svg">
<path class="path-fill" d="M18.1243 0.9375H13.1243C12.8757 0.9375 12.6373 1.03627 12.4614 1.21209C12.2856 1.3879 12.1868 1.62636 12.1868 1.875C12.1868 2.12364 12.2856 2.3621 12.4614 2.53791C12.6373 2.71373 12.8757 2.8125 13.1243 2.8125H15.861L6.87435 11.7992C6.69932 11.9752 6.60123 12.2134 6.60156 12.4616C6.6019 12.7098 6.70065 12.9477 6.87615 13.1232C7.05165 13.2987 7.28959 13.3974 7.53779 13.3978C7.78599 13.3981 8.02419 13.3 8.20017 13.125L17.1868 4.13832V6.875C17.1868 7.12364 17.2856 7.3621 17.4614 7.53791C17.6373 7.71373 17.8757 7.8125 18.1243 7.8125C18.373 7.8125 18.6114 7.71373 18.7873 7.53791C18.9631 7.3621 19.0618 7.12364 19.0618 6.875V1.875C19.0618 1.62636 18.9631 1.3879 18.7873 1.21209C18.6114 1.03627 18.373 0.9375 18.1243 0.9375Z"/>
<path class="path-fill" d="M18.125 9.6875C17.8764 9.6875 17.6379 9.78627 17.4621 9.96209C17.2863 10.1379 17.1875 10.3764 17.1875 10.625V17.1875H2.8125V2.8125H9.375C9.62364 2.8125 9.8621 2.71373 10.0379 2.53791C10.2137 2.3621 10.3125 2.12364 10.3125 1.875C10.3125 1.62636 10.2137 1.3879 10.0379 1.21209C9.8621 1.03627 9.62364 0.9375 9.375 0.9375H1.875C1.62636 0.9375 1.3879 1.03627 1.21209 1.21209C1.03627 1.3879 0.9375 1.62636 0.9375 1.875V18.125C0.9375 18.3736 1.03627 18.6121 1.21209 18.7879C1.3879 18.9637 1.62636 19.0625 1.875 19.0625H18.125C18.3736 19.0625 18.6121 18.9637 18.7879 18.7879C18.9637 18.6121 19.0625 18.3736 19.0625 18.125V10.625C19.0625 10.3764 18.9637 10.1379 18.7879 9.96209C18.6121 9.78627 18.3736 9.6875 18.125 9.6875Z"/>
</svg>
