<svg width="20" height="20" viewBox="0 0 20 20" fill="none" xmlns="http://www.w3.org/2000/svg">
<path class="path-fill" d="M7.53971 13.3984L12.5397 13.3984C12.7884 13.3984 13.0268 13.2997 13.2026 13.1239C13.3784 12.948 13.4772 12.7096 13.4772 12.4609C13.4772 12.2123 13.3784 11.9738 13.2026 11.798C13.0268 11.6222 12.7884 11.5234 12.5397 11.5234L9.80303 11.5234L18.7897 2.53676C18.9647 2.36078 19.0628 2.12257 19.0625 1.87438C19.0622 1.62618 18.9634 1.38824 18.7879 1.21274C18.6124 1.03723 18.3745 0.938488 18.1263 0.93815C17.8781 0.937814 17.6399 1.03591 17.4639 1.21094L8.47721 10.1976V7.46094C8.47721 7.2123 8.37844 6.97384 8.20263 6.79802C8.02681 6.62221 7.78835 6.52344 7.53971 6.52344C7.29107 6.52344 7.05262 6.62221 6.8768 6.79802C6.70099 6.97384 6.60221 7.2123 6.60221 7.46094V12.4609C6.60221 12.7096 6.70099 12.948 6.8768 13.1239C7.05262 13.2997 7.29107 13.3984 7.53971 13.3984Z"/>
<path class="path-fill" d="M18.125 9.6875C17.8764 9.6875 17.6379 9.78627 17.4621 9.96209C17.2863 10.1379 17.1875 10.3764 17.1875 10.625V17.1875H2.8125V2.8125H9.375C9.62364 2.8125 9.8621 2.71373 10.0379 2.53791C10.2137 2.3621 10.3125 2.12364 10.3125 1.875C10.3125 1.62636 10.2137 1.3879 10.0379 1.21209C9.8621 1.03627 9.62364 0.9375 9.375 0.9375H1.875C1.62636 0.9375 1.3879 1.03627 1.21209 1.21209C1.03627 1.3879 0.9375 1.62636 0.9375 1.875V18.125C0.9375 18.3736 1.03627 18.6121 1.21209 18.7879C1.3879 18.9637 1.62636 19.0625 1.875 19.0625H18.125C18.3736 19.0625 18.6121 18.9637 18.7879 18.7879C18.9637 18.6121 19.0625 18.3736 19.0625 18.125V10.625C19.0625 10.3764 18.9637 10.1379 18.7879 9.96209C18.6121 9.78627 18.3736 9.6875 18.125 9.6875Z"/>
</svg>
