<svg xmlns="http://www.w3.org/2000/svg" width="20" height="20" viewBox="0 0 20 20"><defs><style>.a{fill:#010101;}</style></defs><g transform="translate(12 11.97)"><g transform="translate(-12 -11.97)"><path class="a" d="M18.617,17.2A1.377,1.377,0,0,0,20,15.873V1.955A1.961,1.961,0,0,0,18.025,0H1.95A1.952,1.952,0,0,0,0,1.955V15.873a1.368,1.368,0,0,0,1.367,1.37h.425v1.972H.392a.393.393,0,0,0,0,.785H19.558a.393.393,0,0,0,0-.785H18.183V17.21ZM.783,1.955A1.177,1.177,0,0,1,1.95.777H18.025a1.177,1.177,0,0,1,1.142,1.178V2.79H.783Zm3.508,17.26H2.575V15.706H4.292Zm4.375,0H6.95V11.378H8.667Zm4.367,0H11.317V14.678h1.717Zm4.758-9.19h-2.5a.392.392,0,0,0-.392.384v1.972a.392.392,0,1,0,.783,0V10.794H17.4v8.421H15.692V15.038a.392.392,0,1,0-.783,0v4.177H13.817V14.286a.392.392,0,0,0-.392-.384h-2.5a.392.392,0,0,0-.392.384v4.929H9.442V10.986a.392.392,0,0,0-.392-.393H6.55a.392.392,0,0,0-.392.393v8.229H5.075V15.3a.392.392,0,0,0-.392-.393h-2.5a.392.392,0,0,0-.392.393v1.111H1.367a.584.584,0,0,1-.583-.585V3.592H19.167V15.873a.584.584,0,0,1-.583.585H18.15V10.443a.392.392,0,0,0-.358-.418Z" transform="translate(0 0)"/><path class="a" d="M21,1.68H10.4a.47.47,0,1,0,0,.94H21a.47.47,0,0,0,0-.94Z" transform="translate(-4 0)"/><path class="a" d="M5.2,1.82a.46.46,0,1,0,.14.33A.47.47,0,0,0,5.2,1.82Z" transform="translate(-0.766 0)"/><path class="a" d="M3.33,1.82A.47.47,0,0,0,3,1.68a.44.44,0,0,0-.33.14.46.46,0,0,0,0,.66A.44.44,0,0,0,3,2.62a.47.47,0,0,0,.33-.8Z" transform="translate(0 0)"/><path class="a" d="M7.07,1.82a.44.44,0,0,0-.33-.14.47.47,0,0,0-.33.14.48.48,0,0,0,0,.66.47.47,0,0,0,.33.14.44.44,0,0,0,.33-.14.46.46,0,0,0,0-.66Z" transform="translate(-1.089 0)"/><path class="a" d="M18.69,16.15a.47.47,0,0,0-.33-.14.44.44,0,0,0-.33.14.46.46,0,0,0,0,.66.44.44,0,0,0,.33.14.47.47,0,0,0,.33-.14.46.46,0,0,0,0-.66Z" transform="translate(-3.103 -2.743)"/><path class="a" d="M16.188,6.35a1.328,1.328,0,0,0-1.177.908A2.064,2.064,0,0,0,15.107,9l-2.455,3.11a1.063,1.063,0,0,0-.639-.21,1.076,1.076,0,0,0-.584.17L8.862,8.85A2.083,2.083,0,0,0,9.028,8a1.855,1.855,0,0,0-.634-1.571A1.1,1.1,0,0,0,7,6.429,1.855,1.855,0,0,0,6.367,8a2.013,2.013,0,0,0,.2.88l-2.187,2.8a1.135,1.135,0,0,0-.639-.21A1.539,1.539,0,0,0,2.42,13.157,1.532,1.532,0,0,0,3.749,14.83a1.536,1.536,0,0,0,1.324-1.68,2.078,2.078,0,0,0-.166-.81l2.2-2.79a1.122,1.122,0,0,0,.584.17,1.16,1.16,0,0,0,.647-.21l2.534,3.21a1.976,1.976,0,0,0-.2.88,1.511,1.511,0,0,0,1.33,1.56,1.511,1.511,0,0,0,1.33-1.56,1.918,1.918,0,0,0-.166-.81L15.7,9.6a1.029,1.029,0,0,0,.489.12A1.58,1.58,0,0,0,17.42,8.035,1.58,1.58,0,0,0,16.188,6.35ZM3.738,13.9a.685.685,0,0,1-.592-.75.685.685,0,0,1,.592-.75.685.685,0,0,1,.592.75.7.7,0,0,1-.592.75ZM7.686,8.78a.7.7,0,0,1-.6-.765.7.7,0,0,1,.6-.76.7.7,0,0,1,.6.761.7.7,0,0,1-.6.765ZM12,14.35a.683.683,0,0,1-.584-.747.68.68,0,0,1,.588-.742.68.68,0,0,1,.588.743.683.683,0,0,1-.584.747Zm4.176-5.57a.683.683,0,0,1-.592-.74.693.693,0,0,1,.576-.759.672.672,0,0,1,.607.72.863.863,0,0,1-.16.549.534.534,0,0,1-.425.231Z" transform="translate(0 -1.628)"/><path class="a" d="M7,6a.48.48,0,0,0-.34-.14.46.46,0,0,0-.46.47.44.44,0,0,0,.46.46A.51.51,0,0,0,7,6.69a.51.51,0,0,0,.13-.33A.47.47,0,0,0,7,6Z" transform="translate(-1.075 -1.003)"/><path class="a" d="M4.87,5.89H2.62a.47.47,0,1,0,0,.93H4.87a.47.47,0,1,0,0-.93Z" transform="translate(0 -1.008)"/><path class="a" d="M4.87,8.13H2.62a.47.47,0,1,0,0,.94H4.87a.47.47,0,0,0,0-.94Z" transform="translate(0 -1.393)"/></g></g></svg>