<svg xmlns="http://www.w3.org/2000/svg" width="20" height="20" viewBox="0 0 20 20"><g transform="translate(12 11.99)"><g transform="translate(-12 -11.99)"><g transform="translate(1.448 1.518)"><path d="M18.7,17.75l-4.32-4.237A6.954,6.954,0,0,0,16,9.051a7.024,7.024,0,1,0-2.653,5.46l4.341,4.3a.72.72,0,1,0,1.041-.992A.068.068,0,0,0,18.7,17.75ZM3.466,9.016a5.568,5.568,0,1,1,5.6,5.546h0A5.557,5.557,0,0,1,3.432,9.016Z" transform="translate(-1.955 -1.962)"/></g><g transform="translate(4.926 4.916)"><path d="M7.136,6.69H9.279a.408.408,0,0,1,.408.408v2.09a.4.4,0,0,1-.408.408H7.188a.408.408,0,0,1-.418-.408V7.1a.408.408,0,0,1,.418-.408Z" transform="translate(-6.77 -6.69)"/><path d="M11.408,6.69H13.5a.418.418,0,0,1,.418.408v2.09A.408.408,0,0,1,13.5,9.6H11.408a.408.408,0,0,1-.418-.408V7.1a.418.418,0,0,1,.418-.408Z" transform="translate(-6.579 -6.69)"/><path d="M7.136,10.91H9.279a.408.408,0,0,1,.408.418v2.091a.408.408,0,0,1-.408.418H7.188a.408.408,0,0,1-.418-.418V11.328a.408.408,0,0,1,.418-.418Z" transform="translate(-6.77 -6.499)"/><path d="M11.408,10.91H13.5a.418.418,0,0,1,.418.418v2.091a.418.418,0,0,1-.418.418H11.408a.418.418,0,0,1-.418-.418V11.328a.418.418,0,0,1,.418-.418Z" transform="translate(-6.579 -6.499)"/></g><path d="M18.554.51h1.589a.314.314,0,0,1,.314.314v1.6a.324.324,0,0,1-.314.314H18.554a.314.314,0,0,1-.314-.314V.824A.3.3,0,0,1,18.554.51Z" transform="translate(-3.767 -0.51)"/><path d="M21.723.51h1.6a.3.3,0,0,1,.3.314v1.6a.314.314,0,0,1-.3.314h-1.6a.314.314,0,0,1-.3-.314V.824a.3.3,0,0,1,.3-.314Z" transform="translate(-3.623 -0.51)"/><path d="M21.723,9.83h1.6a.314.314,0,0,1,.3.314v1.6a.3.3,0,0,1-.3.314h-1.6a.3.3,0,0,1-.3-.314v-1.6a.314.314,0,0,1,.3-.314Z" transform="translate(-3.623 -1.869)"/><path d="M18.554,3.7h1.589a.314.314,0,0,1,.314.314v1.6a.324.324,0,0,1-.314.314H18.554a.314.314,0,0,1-.314-.314v-1.6a.3.3,0,0,1,.314-.314Z" transform="translate(-3.767 -0.365)"/><path d="M21.723,3.7h1.6a.3.3,0,0,1,.3.314v1.6a.314.314,0,0,1-.3.314h-1.6a.314.314,0,0,1-.3-.314v-1.6a.3.3,0,0,1,.3-.314Z" transform="translate(-3.623 -0.365)"/><path d="M21.723,13h1.6a.314.314,0,0,1,.3.314v1.6a.3.3,0,0,1-.3.314h-1.6a.3.3,0,0,1-.3-.314v-1.58a.314.314,0,0,1,.3-.314Z" transform="translate(-3.623 -2.331)"/><path d="M15.674.51h1.589a.314.314,0,0,1,.314.314v1.6a.324.324,0,0,1-.314.314H15.674a.314.314,0,0,1-.314-.314V.824A.3.3,0,0,1,15.674.51Z" transform="translate(-2.737 -0.51)"/><path d="M21.723,6.89h1.6a.314.314,0,0,1,.3.314V8.8a.3.3,0,0,1-.3.314h-1.6a.3.3,0,0,1-.3-.314V7.2a.314.314,0,0,1,.3-.31Z" transform="translate(-3.623 -1.44)"/><path d="M21.723,16.22h1.6a.3.3,0,0,1,.3.3v1.61a.3.3,0,0,1-.3.3h-1.6a.3.3,0,0,1-.3-.3V16.52A.3.3,0,0,1,21.723,16.22Z" transform="translate(-3.623 -2.798)"/><g transform="translate(0 11.587)"><path d="M.57,18.545v1.537a.314.314,0,0,0,.314.3h1.6a.3.3,0,0,0,.314-.314V18.5a.3.3,0,0,0-.314-.3H.884a.314.314,0,0,0-.314.3Z" transform="translate(-0.57 -15.273)"/><path d="M.57,21.673v1.568a.3.3,0,0,0,.3.3H2.49a.3.3,0,0,0,.3-.3V21.673a.3.3,0,0,0-.314-.3H.884a.314.314,0,0,0-.314.3Z" transform="translate(-0.57 -15.129)"/><path d="M9.9,21.673v1.568a.3.3,0,0,0,.314.3h1.6a.314.314,0,0,0,.314-.3V21.673a.314.314,0,0,0-.314-.3h-1.6a.3.3,0,0,0-.314.3Z" transform="translate(-0.147 -15.129)"/><path d="M3.77,18.544v1.537a.3.3,0,0,0,.3.314H5.68a.3.3,0,0,0,.3-.314V18.513a.3.3,0,0,0-.3-.3H4.073a.3.3,0,0,0-.3.3Z" transform="translate(-0.425 -15.273)"/><path d="M3.77,21.673v1.568a.3.3,0,0,0,.3.3H5.68a.3.3,0,0,0,.3-.3V21.673a.3.3,0,0,0-.3-.3H4.073a.3.3,0,0,0-.3.3Z" transform="translate(-0.425 -15.129)"/><path d="M13.09,21.673v1.568a.3.3,0,0,0,.314.3H15a.3.3,0,0,0,.314-.3V21.673a.3.3,0,0,0-.314-.3H13.4a.3.3,0,0,0-.314.3Z" transform="translate(-0.003 -15.129)"/><path d="M.57,15.714v1.568a.314.314,0,0,0,.314.3h1.6a.3.3,0,0,0,.314-.3V15.714a.3.3,0,0,0-.314-.314H.884a.314.314,0,0,0-.314.314Z" transform="translate(-0.57 -15.4)"/><path d="M7,21.673v1.568a.3.3,0,0,0,.314.3H8.873a.314.314,0,0,0,.314-.3V21.673a.314.314,0,0,0-.314-.3h-1.6a.3.3,0,0,0-.314.3Z" transform="translate(-0.281 -15.129)"/><path d="M16.28,21.673v1.568a.314.314,0,0,0,.314.3h1.6a.3.3,0,0,0,.314-.3V21.673a.3.3,0,0,0-.314-.3h-1.6a.314.314,0,0,0-.314.3Z" transform="translate(0.141 -15.129)"/></g></g></g></svg>