<svg xmlns="http://www.w3.org/2000/svg" width="21.76" height="20.88" viewBox="0 0 21.76 20.88"><defs><style>.a{fill:none;}.a,.c{stroke:#000;stroke-width:1.76px;}.a,.b,.c,.d{stroke-miterlimit:10;}.b{fill:#fff;}.b,.d{stroke:#231f20;stroke-width:1.5px;}.d{fill:#231f20;}.e{fill:#010101;}</style></defs><g transform="translate(0.88 0.88)"><rect class="a" width="20" height="13.233" rx="0.927"/><path class="b" d="M15.4,21.2" transform="translate(-1.721 -1.2)"/><path class="c" d="M9.7,14.95v5.167h2.788V14.95" transform="translate(-1.404 -1.063)"/><path class="d" d="M5.53,15" transform="translate(-1.067 -1.063)"/><rect class="e" width="9.819" height="3.022" transform="translate(4.804 16.812)"/><g transform="translate(4.003 1.359)"><path d="M12.441,6.1,10.172,8.165,9.7,7.725a.508.508,0,0,0-.685,0,.411.411,0,0,0,0,.577L9,8.35l.8.743h0a.508.508,0,0,0,.685,0L13.1,6.727a.43.43,0,0,0,0-.607h0a.508.508,0,0,0-.685,0Z" transform="translate(-5.376 -2.224)"/><path d="M16.331,5.915l-.667-.128L15.488,5.4l.372-.518a.411.411,0,0,0-.1-.558l-1.505-1.34a.518.518,0,0,0-.616-.058l-.567.343-.43-.158-.127-.616a.469.469,0,0,0-.479-.352H9.945a.469.469,0,0,0-.479.352l-.1.616-.45.117L8.39,2.881a.518.518,0,0,0-.616.1L6.216,4.321a.4.4,0,0,0-.058.557l.372.518a2.807,2.807,0,0,0-.176.391l-.667.127a.46.46,0,0,0-.391.43V8.3a.46.46,0,0,0,.391.43l.667.117a2.807,2.807,0,0,0,.176.391l-.372.518a.4.4,0,0,0,.058.558L7.722,11.7a.528.528,0,0,0,.616.049l.577-.372a3.09,3.09,0,0,0,.417.157l.137.616a.469.469,0,0,0,.479.352h2.132a.469.469,0,0,0,.479-.352l.127-.616a3.218,3.218,0,0,0,.43-.157l.567.343a.528.528,0,0,0,.616,0l1.457-1.438a.411.411,0,0,0,.058-.557l-.372-.518.215-.362.667-.128a.46.46,0,0,0,.411-.46V6.306a.46.46,0,0,0-.411-.391ZM15.764,7.94l-.558.1a.469.469,0,0,0-.372.313,3.207,3.207,0,0,1-.322.723.4.4,0,0,0,0,.46l.313.43-1.017.841-.469-.283a.508.508,0,0,0-.5,0,3.912,3.912,0,0,1-.793.293.46.46,0,0,0-.333.343l-.118.508h-1.25l-.108-.508a.469.469,0,0,0-.343-.352,3.583,3.583,0,0,1-.782-.293.518.518,0,0,0-.508,0l-.469.293-.978-.862.313-.43a.43.43,0,0,0,0-.46,3.736,3.736,0,0,1-.333-.723.469.469,0,0,0-.372-.313l-.55-.1v-1.2l.55-.111a.469.469,0,0,0,.372-.313,3.912,3.912,0,0,1,.333-.714.4.4,0,0,0,0-.46L7.158,4.69l.975-.867.469.283a.479.479,0,0,0,.508,0,5.868,5.868,0,0,1,.783-.293.469.469,0,0,0,.342-.342l.108-.489h1.34l.117.508a.469.469,0,0,0,.343.342,5.867,5.867,0,0,1,.782.293.46.46,0,0,0,.5,0l.479-.283.978.871-.313.43a.4.4,0,0,0,0,.46,3.129,3.129,0,0,1,.323.714.469.469,0,0,0,.372.313l.557.108Z" transform="translate(-5.296 -2.138)"/></g></g></svg>