<svg xmlns="http://www.w3.org/2000/svg" width="96.994" height="96" viewBox="0 0 96.994 96">
  <g id="Group_116322" data-name="Group 116322" transform="translate(-252.068 -668.378)">
    <g id="Group_10838" data-name="Group 10838">
      <g id="Group_10833" data-name="Group 10833">
        <g id="Group_10832" data-name="Group 10832">
          <line id="Line_8891" data-name="Line 8891" x2="2.345" transform="translate(343.596 751.163)" fill="none" stroke="#7e7e7e" stroke-linecap="round" stroke-width="1.7"/>
          <line id="Line_8892" data-name="Line 8892" x2="2.345" transform="translate(252.918 751.163)" fill="none" stroke="#7e7e7e" stroke-linecap="round" stroke-width="1.7"/>
          <line id="Line_8893" data-name="Line 8893" x2="83.066" transform="translate(257.959 751.163)" fill="none" stroke="#7e7e7e" stroke-linecap="round" stroke-width="1.7"/>
        </g>
      </g>
      <path id="Path_34995" data-name="Path 34995" d="M267.9,704.026l-.385,3.393-2.908.941,3.336.428,1.411,2.794.214-3.136,2.922-1.454h-3.179Z" fill="none" stroke="#7e7e7e" stroke-linecap="round" stroke-linejoin="round" stroke-width="1.7"/>
      <path id="Path_34996" data-name="Path 34996" d="M272.308,689.339a1.181,1.181,0,1,1-1.178-1.271A1.227,1.227,0,0,1,272.308,689.339Z" fill="none" stroke="#7e7e7e" stroke-linecap="round" stroke-width="1.7"/>
      <path id="Path_34997" data-name="Path 34997" d="M324.234,707.8a1.18,1.18,0,1,1-1.177-1.271A1.227,1.227,0,0,1,324.234,707.8Z" fill="none" stroke="#7e7e7e" stroke-linecap="round" stroke-width="1.7"/>
      <path id="Path_34998" data-name="Path 34998" d="M309.49,694.662a1.181,1.181,0,1,1-1.178-1.271A1.227,1.227,0,0,1,309.49,694.662Z" fill="none" stroke="#7e7e7e" stroke-linecap="round" stroke-width="1.7"/>
      <rect id="Rectangle_6271" data-name="Rectangle 6271" width="96" height="96" transform="translate(253.062 668.378)" fill="none"/>
      <path id="Path_35000" data-name="Path 35000" d="M314.289,695.646" fill="none" stroke="#000" stroke-linecap="round" stroke-width="1.7"/>
      <g id="Group_10837" data-name="Group 10837">
        <g id="Group_10835" data-name="Group 10835">
          <path id="Path_35001" data-name="Path 35001" d="M314.395,722.144l4.711,6.494s-10.954,3.548-15.4,4.216l-4.275,5.091" fill="none" stroke="#7e7e7e" stroke-linecap="round" stroke-width="1.7"/>
          <path id="Path_35002" data-name="Path 35002" d="M309.761,748.687l2.373-8.587s13.982-5.684,13.676-8.942-6.145-10.268-6.145-10.268,3.054-6.421-.993-7.281c-1.89-.4-1.048,0-1.048,0" fill="none" stroke="#7e7e7e" stroke-linecap="round" stroke-width="1.7"/>
        </g>
        <g id="Group_10836" data-name="Group 10836">
          <path id="Path_35003" data-name="Path 35003" d="M284.464,722.144l-4.711,6.494s10.954,3.548,15.4,4.216l4.274,5.091" fill="none" stroke="#7e7e7e" stroke-linecap="round" stroke-width="1.7"/>
          <path id="Path_35004" data-name="Path 35004" d="M289.1,748.687l-2.373-8.587s-13.982-5.684-13.677-8.942,6.146-10.268,6.146-10.268-3.054-6.421.993-7.281c1.89-.4,1.048,0,1.048,0" fill="none" stroke="#7e7e7e" stroke-linecap="round" stroke-width="1.7"/>
        </g>
        <path id="Path_35005" data-name="Path 35005" d="M289.706,706.226" fill="none" stroke="#7f7f7f" stroke-linecap="round" stroke-width="1.7"/>
        <path id="Path_35006" data-name="Path 35006" d="M287.215,722.365" fill="none" stroke="#7f7f7f" stroke-linecap="round" stroke-width="1.7"/>
        <path id="Path_35007" data-name="Path 35007" d="M311.479,722.1a13.66,13.66,0,0,1-24.264.263" fill="none" stroke="#7e7e7e" stroke-linecap="round" stroke-width="1.7"/>
        <path id="Path_35008" data-name="Path 35008" d="M311.479,722.1" fill="none" stroke="#7f7f7f" stroke-linecap="round" stroke-width="1.7"/>
        <path id="Path_35009" data-name="Path 35009" d="M289.706,706.226a13.655,13.655,0,0,1,19.447.307" fill="none" stroke="#7e7e7e" stroke-linecap="round" stroke-width="1.7"/>
        <circle id="Ellipse_664" data-name="Ellipse 664" cx="7.675" cy="7.675" r="7.675" transform="matrix(0.23, -0.973, 0.973, 0.23, 279.865, 720.175)" fill="none" stroke="#8626c3" stroke-linecap="round" stroke-linejoin="round" stroke-width="1.7"/>
        <circle id="Ellipse_665" data-name="Ellipse 665" cx="7.675" cy="7.675" r="7.675" transform="translate(300.192 720.175) rotate(-76.718)" fill="none" stroke="#8626c3" stroke-linecap="round" stroke-linejoin="round" stroke-width="1.7"/>
        <line id="Line_8894" data-name="Line 8894" x2="4.299" transform="translate(296.736 715.231)" fill="none" stroke="#8626c3" stroke-linecap="round" stroke-linejoin="round" stroke-width="1.7"/>
        <path id="Path_35010" data-name="Path 35010" d="M284.464,722.144" fill="none" stroke="#7f7f7f" stroke-linecap="round" stroke-width="1.7"/>
        <path id="Path_35011" data-name="Path 35011" d="M291.795,711.726l-2.886,1.129,2.259,1.75-3.953,1.889" fill="none" stroke="#8626c3" stroke-linecap="round" stroke-linejoin="round" stroke-width="1.7"/>
        <path id="Path_35012" data-name="Path 35012" d="M311.715,711.726l-2.886,1.129,2.259,1.75-3.953,1.889" fill="none" stroke="#8626c3" stroke-linecap="round" stroke-linejoin="round" stroke-width="1.7"/>
      </g>
      <g id="Rectangle_18529" data-name="Rectangle 18529" transform="translate(277.918 683.878)" fill="none" stroke="#8626c3" stroke-width="1.7">
        <rect width="13" height="11" rx="2" stroke="none"/>
        <rect x="0.85" y="0.85" width="11.3" height="9.3" rx="1.15" fill="none"/>
      </g>
      <g id="Rectangle_18530" data-name="Rectangle 18530" transform="translate(313.918 681.878)" fill="none" stroke="#8626c3" stroke-width="1.7">
        <rect width="21" height="20" rx="2" stroke="none"/>
        <rect x="0.85" y="0.85" width="19.3" height="18.3" rx="1.15" fill="none"/>
      </g>
      <g id="icon-hide" transform="translate(316.918 683.878)">
        <rect id="Rectangle_1573" data-name="Rectangle 1573" width="15" height="15" fill="#8626c3" opacity="0"/>
        <g id="Group_4263" data-name="Group 4263" transform="translate(1.25 1.875)">
          <path id="Path_5224" data-name="Path 5224" d="M868.77,471.429c-.119-.134-2.959-3.28-6.117-3.28a.526.526,0,1,0,0,1.053c2.116,0,4.2,1.81,4.987,2.582a9.118,9.118,0,0,1-.936.788.522.522,0,0,0-.109.736.535.535,0,0,0,.743.108,8.185,8.185,0,0,0,1.451-1.313A.522.522,0,0,0,868.77,471.429Z" transform="translate(-856.403 -466.194)" fill="#8626c3"/>
          <path id="Path_5225" data-name="Path 5225" d="M854.659,465.175a.534.534,0,0,0-.751,0,.522.522,0,0,0,0,.744l2.064,2.045a12.892,12.892,0,0,0-2.868,2.292.522.522,0,0,0,0,.7c.119.134,2.959,3.279,6.117,3.279a6.048,6.048,0,0,0,2.482-.589l2.5,2.476a.533.533,0,0,0,.751,0,.522.522,0,0,0,0-.744Zm4.563,8c-2.11,0-4.184-1.8-4.981-2.575a11.5,11.5,0,0,1,2.508-1.871l1.342,1.329a1.214,1.214,0,0,0-.143.571,1.242,1.242,0,0,0,1.821,1.092l1.123,1.113A4.723,4.723,0,0,1,859.222,473.179Z" transform="translate(-852.972 -465.021)" fill="#8626c3"/>
        </g>
      </g>
    </g>
    <g id="Group_17741" data-name="Group 17741" transform="translate(281.265 689.157)">
      <ellipse id="Ellipse_666" data-name="Ellipse 666" cx="1.05" cy="1.05" rx="1.05" ry="1.05" transform="translate(1.528)" fill="none" stroke="#8626c3" stroke-linecap="round" stroke-width="1.7"/>
      <path id="Path_35013" data-name="Path 35013" d="M325.657,696.492a2.339,2.339,0,0,0-2.47-2.258,2.743,2.743,0,0,0-2.53,1.815" transform="translate(-320.657 -691.673)" fill="none" stroke="#8626c3" stroke-linecap="round" stroke-width="1.7"/>
    </g>
  </g>
</svg>
