<svg width="211" height="18" viewBox="0 0 211 18" fill="none" xmlns="http://www.w3.org/2000/svg">
<path d="M68.1293 17.7688H67.0274L54.0444 2.49155V17.7688H52.7164V0.287598H53.844L66.8014 15.5648V0.287598H68.1293V17.7688Z" fill="#0094FF"/>
<path d="M81.4108 1.41464H73.4155V8.41234H81.2104V9.54156H73.4155V16.6417H81.6111V17.7688H72.0876V0.287598H81.4108V1.41464Z" fill="#0094FF"/>
<path d="M96.6233 1.41464H90.2075V17.7688H88.8795V1.41464H82.4637V0.287598H96.6254V1.41464H96.6233Z" fill="#0094FF"/>
<path d="M103.915 17.9475H103.564L96.6958 0.287598H98.0493L103.713 14.7953L109.453 0.287598H109.854L115.568 14.7953L121.234 0.287598H122.587L115.72 17.9497H115.393L109.653 3.18478L103.915 17.9475Z" fill="#0094FF"/>
<path d="M131.857 18C126.795 18 122.834 14.052 122.834 9.02939C122.834 4.00674 126.795 0.0566406 131.857 0.0566406C136.945 0.0566406 140.931 4.00456 140.931 9.02939C140.931 14.0542 136.945 18 131.857 18ZM131.908 1.3123C127.622 1.3123 124.265 4.67163 124.265 9.02721C124.265 13.3828 127.624 16.7421 131.908 16.7421C136.195 16.7421 139.503 13.385 139.503 9.02721C139.503 4.66945 136.193 1.3123 131.908 1.3123Z" fill="#0094FF"/>
<path d="M148.547 0.287598C152.733 0.287598 154.21 2.46539 154.21 4.79795C154.21 6.82314 153.132 8.23358 150.953 9.05325C151.755 9.48924 152.433 10.4898 153.234 11.7194L157.094 17.7688H155.54L152.558 12.975C150.504 9.668 149.851 9.38679 147.797 9.38679H145.49V17.7688H144.162V0.287598H148.547ZM145.49 8.25756H148.323C151.331 8.25756 152.784 6.92342 152.784 4.82193C152.784 2.84906 151.405 1.41246 148.274 1.41246H145.492V8.25756H145.49Z" fill="#0094FF"/>
<path d="M161.479 9.00311L170.401 17.7688H168.722L159.773 9.00311V17.7688H158.446V0.287598H159.773V9.00311L167.969 0.287598H169.623L161.479 9.00311Z" fill="#0094FF"/>
<path d="M173.132 17.7688H171.804V0.287598H173.132V17.7688Z" fill="#0094FF"/>
<path d="M192.428 17.7688H191.326L178.343 2.49155V17.7688H177.015V0.287598H178.143L191.1 15.5648V0.287598H192.428V17.7688Z" fill="#0094FF"/>
<path d="M210.674 3.08026C208.594 1.87691 206.664 1.3123 204.608 1.3123C200.272 1.3123 197.064 4.59315 197.064 9.02721C197.064 12.949 199.596 16.7421 204.985 16.7421C206.965 16.7421 208.319 16.3584 209.672 15.6652V10.9499H206.063V9.8229H211V16.5132C208.971 17.5116 206.916 18 204.936 18C199.622 18 195.636 14.1545 195.636 8.97707C195.636 3.84979 199.522 0.0566406 204.81 0.0566406C206.739 0.0566406 208.27 0.440315 210.676 1.54338V3.08026H210.674Z" fill="#0094FF"/>
<path d="M3.35925 13.7207V6.86475H0V17.152H10.0628V13.7207H3.35925Z" fill="#0094FF"/>
<path d="M16.7643 0H0.00213623V5.14473H3.355V3.44435H13.4136V13.7207H11.7382V17.152H16.7643V0Z" fill="#003778"/>
<path d="M21.1936 0.200684H26.3007V12.8074H33.6352V17.1521H21.1936V0.200684Z" fill="#003778"/>
<path d="M35.8178 0.200684H48.6325V4.54536H40.9249V6.65775H47.5411V10.6929H40.9249V17.1499H35.8178V0.200684Z" fill="#003778"/>
</svg>
